<?xml version="1.0" encoding="UTF-8"?>
<svg xmlns="http://www.w3.org/2000/svg" baseProfile="tiny" version="1.2" viewBox="0 0 570.7 174.6">
  <!-- Generator: Adobe Illustrator 28.6.0, SVG Export Plug-In . SVG Version: 1.2.0 Build 709)  -->
  <g>
    <g id="Layer_1">
      <g>
        <polygon points="259.6 92.6 259.6 73.2 244.1 92.6 259.6 92.6" fill="#1d4ed8"/>
        <path d="M165.4,34c-6.4,0-11.6,5.2-11.6,11.6v83.4c0,6.4,5.2,11.6,11.6,11.6h124.6l34.7-106.6h-159.3ZM225.8,124.5h-56.5v-15.2c5.8-9.4,8.6-12.5,15.3-17.8,7.4-6.6,18.5-11,18.5-17.5s-4-6.9-8.8-6.9-9.7,4.6-12.9,8l-11.3-11.9c7.3-8.5,16.8-13,27.2-13s24.9,8.8,24.9,22.9-5.7,16.2-16.8,23.5c-5,3.2-13.3,9.8-15.7,14h18.4v-8.4h17.6v22.3ZM286.9,124.5h-33.9v-13.8h6.6v-6.8h-30.2v-15l30.2-37.6h21.7v41.3h5.5v11.3h-5.5v6.8h5.7v13.8Z" fill="#1d4ed8"/>
        <path d="M405.3,34h-63.7l-34.7,106.6h98.4c6.4,0,11.6-5.2,11.6-11.6V45.6c0-6.4-5.2-11.6-11.6-11.6ZM401.4,65.2l-28.2,59.3h-22.6l28.1-59.3h-17.2v6.8h-16.8v-20.7h56.6v13.9Z" fill="#1d4ed8"/>
      </g>
    </g>
  </g>
</svg>