<?xml version="1.0" encoding="UTF-8"?>
<svg xmlns="http://www.w3.org/2000/svg" baseProfile="tiny" version="1.2" viewBox="0 0 1200 1200">
  <!-- Generator: Adobe Illustrator 28.6.0, SVG Export Plug-In . SVG Version: 1.2.0 Build 709)  -->
  <g>
    <g id="_Ñëîé_1" data-name="Ñëîé_1">
      <path d="M1037.3,718.5l15.4-100.4-81.9-42.4-12.3-72.9,63.6-66.6-45.2-86.9-91.1,13.7-52.4-52,12.6-91.3-87.8-44.3-65.7,64.5-73-11.2-43.3-81.3-96.9,15.9-15.3,90.9-65.6,33.8-82.7-40.4-69.3,69.4,40.7,82.6-33.5,65.8-90.8,15.9-15.4,100.4,81.9,42.4,3,18h6.1l-3.7-22-80.7-41.8,14.1-91.9,89.5-15.7,36.3-71.2-40.1-81.5,63.2-63.3,81.6,39.9,71-36.6,15.1-89.6,88.5-14.5,42.7,80.1,79,12.1,64.8-63.6,80.1,40.4-12.5,90,56.7,56.2,89.8-13.5,41.2,79.3-62.7,65.7,13.3,78.8,80.7,41.8-14.1,91.9-89.5,15.7-36.4,71.3.9,1.4c.1.2,11.7,19,21.8,39.4,4.4,8.7,14.7,33.4,17.6,40.3l-63.3,63.4-81.6-39.9-71,36.6-15.1,89.6-88.5,14.5-42.7-80.1-18-2.8v6.1l14.1,2.2,43.3,81.3,96.9-15.9,15.3-90.9,65.6-33.8,82.7,40.4,69.2-69.3-.8-1.9c-.5-1.3-13.4-32.2-18.6-42.6-8.6-17.4-18.2-33.6-21.2-38.5l33.5-65.7,90.8-15.9Z" fill="#fff"/>
      <g>
        <path d="M297.2,499.2l-49,84.9h98.1l-49-84.9ZM294.2,571.5l-10.5,8.7.3-12.5,4,1.5,6.6-16.7h-12.3l16.5-32.6,7.5,3.1-14.6,25.2h12.3l-13.8,21.8,4.1,1.5Z" fill="#fff"/>
        <path d="M361.3,590l-61.6-106.8c-1.1-1.9-3.8-1.9-4.8,0l-61.7,106.8c-1.1,1.9.3,4.2,2.4,4.2h123.3c2.1,0,3.5-2.3,2.4-4.2ZM349.3,585.8c-.5.8-1.3,1.3-2.2,1.3h-99.7c-.9,0-1.8-.5-2.2-1.3-.5-.8-.5-1.8,0-2.6l49.8-86.3c.5-.8,1.3-1.3,2.2-1.3s1.8.5,2.2,1.3l49.8,86.3c.5.8.5,1.8,0,2.6Z" fill="#fff"/>
      </g>
      <g>
        <path d="M529.8,756.1l70.2,30.1,70.1-30.1h-140.3ZM600,777.8c-5.1,0-9.3-3.6-9.3-8.1s4.1-8.1,9.3-8.1,9.2,3.6,9.2,8.1-4.1,8.1-9.2,8.1Z" fill="#fff"/>
        <path d="M735.3,757.4l-2.1-47.1c-.1-2.8-2.3-5.1-5.2-5.9l-1.7,23.9c-.1,1.9-.9,3.7-2.2,5.1l-13,13.9c-1.7,1.8-4.1,2.8-6.7,2.8s-5.7-1.4-7.4-3.7l-10.9-15.1c-1.2-1.7-1.8-3.6-1.6-5.5l1.5-21.8h-174.7l1.5,21.8c.1,1.9-.4,3.8-1.5,5.4l-11,15.2c-1.7,2.3-4.4,3.7-7.4,3.7s-5-1-6.7-2.8l-13.1-13.9c-1.3-1.4-2.1-3.2-2.2-5.1l-1.7-24.2h-.7c-4,0-7.3,2.9-7.3,6.4v44.5c19.5,13.2,41.1,23.8,64.1,31v-34.7h4.6s140.3,0,140.3,0h4.6s0,34.7,0,34.7c21.6-6.8,41.9-16.5,60.5-28.7ZM600,791.2l-70.2-30v26.4c7.6,2.2,15.3,4.1,23.1,5.6,13.9,2.7,28.2,4.2,42.8,4.4h.1c1.4,0,2.8,0,4.1,0s3.3,0,4.9,0h0c15.7-.3,30.9-2.1,45.7-5.1,6.6-1.4,13.1-3,19.4-4.9v-26.4l-70.1,30Z" fill="#fff"/>
        <path d="M463.7,628.1l5,71.5h-.4c-6.6,0-11.9,5-11.9,11v41.2c-24.5-17.4-45.7-39.2-62.5-64.2.3-25.4,22.2-47.8,54.5-55.7l15.2-3.8Z" fill="#fff"/>
        <path d="M691.9,617.6l-5.7,82h-175.4l-5.6-80v-1.6c-.1,0,34.3-8.5,34.3-8.5h0c.1.5.2.9.4,1.3,3,9,8.8,16.2,16.3,21.6t0,0c1.7,1.3,3.5,2.4,5.4,3.5,5.6,3.2,11.9,5.6,18.6,7.2h0c12.5,2.9,26.1,2.9,38.6,0h0c6.2-1.5,12.1-3.6,17.4-6.5,1.8-1,3.5-2,5.2-3.1h0c7.7-5.3,13.8-12.3,17.2-21.2.4-.9.2-.4.5-1.3l23,4.8,9.6,1.9Z" fill="#fff"/>
        <path d="M806.1,687.4c-17.6,26.3-40.2,49.1-66.3,67l-2-44.3c-.2-5.2-4.2-9.4-9.5-10.3l5.1-72.3,18.1,4.4c32.3,7.9,54.2,30.2,54.6,55.5Z" fill="#fff"/>
        <path d="M529.8,756.1l70.2,30.1,70.1-30.1h-140.3ZM600,777.8c-5.1,0-9.3-3.6-9.3-8.1s4.1-8.1,9.3-8.1,9.2,3.6,9.2,8.1-4.1,8.1-9.2,8.1Z" fill="#fff"/>
        <path d="M735.3,757.4l-2.1-47.1c-.1-2.8-2.3-5.1-5.2-5.9l-1.7,23.9c-.1,1.9-.9,3.7-2.2,5.1l-13,13.9c-1.7,1.8-4.1,2.8-6.7,2.8s-5.7-1.4-7.4-3.7l-10.9-15.1c-1.2-1.7-1.8-3.6-1.6-5.5l1.5-21.8h-174.7l1.5,21.8c.1,1.9-.4,3.8-1.5,5.4l-11,15.2c-1.7,2.3-4.4,3.7-7.4,3.7s-5-1-6.7-2.8l-13.1-13.9c-1.3-1.4-2.1-3.2-2.2-5.1l-1.7-24.2h-.7c-4,0-7.3,2.9-7.3,6.4v44.5c19.5,13.2,41.1,23.8,64.1,31v-34.7h4.6s140.3,0,140.3,0h4.6s0,34.7,0,34.7c21.6-6.8,41.9-16.5,60.5-28.7ZM600,791.2l-70.2-30v26.4c7.6,2.2,15.3,4.1,23.1,5.6,13.9,2.7,28.2,4.2,42.8,4.4h.1c1.4,0,2.8,0,4.1,0s3.3,0,4.9,0h0c15.7-.3,30.9-2.1,45.7-5.1,6.6-1.4,13.1-3,19.4-4.9v-26.4l-70.1,30Z" fill="#fff"/>
        <path d="M529.8,756.1l70.2,30.1,70.1-30.1h-140.3ZM600,777.8c-5.1,0-9.3-3.6-9.3-8.1s4.1-8.1,9.3-8.1,9.2,3.6,9.2,8.1-4.1,8.1-9.2,8.1Z" fill="#fff"/>
        <path d="M735.3,757.4l-2.1-47.1c-.1-2.8-2.3-5.1-5.2-5.9l-1.7,23.9c-.1,1.9-.9,3.7-2.2,5.1l-13,13.9c-1.7,1.8-4.1,2.8-6.7,2.8s-5.7-1.4-7.4-3.7l-10.9-15.1c-1.2-1.7-1.8-3.6-1.6-5.5l1.5-21.8h-174.7l1.5,21.8c.1,1.9-.4,3.8-1.5,5.4l-11,15.2c-1.7,2.3-4.4,3.7-7.4,3.7s-5-1-6.7-2.8l-13.1-13.9c-1.3-1.4-2.1-3.2-2.2-5.1l-1.7-24.2h-.7c-4,0-7.3,2.9-7.3,6.4v44.5c19.5,13.2,41.1,23.8,64.1,31v-34.7h4.6s140.3,0,140.3,0h4.6s0,34.7,0,34.7c21.6-6.8,41.9-16.5,60.5-28.7ZM600,791.2l-70.2-30v26.4c7.6,2.2,15.3,4.1,23.1,5.6,13.9,2.7,28.2,4.2,42.8,4.4h.1c1.4,0,2.8,0,4.1,0s3.3,0,4.9,0h0c15.7-.3,30.9-2.1,45.7-5.1,6.6-1.4,13.1-3,19.4-4.9v-26.4l-70.1,30Z" fill="#fff"/>
        <path d="M725,625.4l-28.5-7-.2,3-7.4,104.9c0,.8.2,1.6.7,2.3h0c0,.1,10.9,15.2,10.9,15.2,1.6,2.2,5.1,2.3,6.9.4l13.1-13.9c.6-.6.9-1.4,1-2.2l4.1-58.1,2.9-40.7.2-3h0s-3.8-.9-3.8-.9ZM717.2,722.4c-.4,5.6-5.5,10-11.5,10s-.4,0-.7,0c-3.2-.2-6.2-1.6-8.3-3.9-1.8-2.1-2.8-4.8-2.6-7.5.4-5.6,5.5-10,11.5-10s.4,0,.7,0c3.2.2,6.2,1.6,8.3,3.9,1.9,2.1,2.8,4.8,2.6,7.5Z" fill="#fff"/>
        <path d="M500.6,619.9v-.8c0,0-32.2,7.9-32.2,7.9h0s0,.3,0,.3l7.1,100.8c0,.8.4,1.6,1,2.2l13,13.9c1.9,2,5.4,1.8,6.9-.4l11-15.2c.5-.7.7-1.5.7-2.3l-7.5-106.5ZM500.3,728.5c-2,2.3-5.1,3.7-8.3,3.9-.2,0-.4,0-.7,0-6.1,0-11.1-4.4-11.5-10-.2-2.7.7-5.4,2.6-7.5,2-2.3,5.1-3.7,8.3-3.9.2,0,.4,0,.7,0,6.1,0,11.1,4.4,11.5,10,.2,2.7-.7,5.4-2.6,7.5Z" fill="#fff"/>
        <path d="M529.8,756.1l70.2,30.1,70.1-30.1h-140.3ZM600,777.8c-5.1,0-9.3-3.6-9.3-8.1s4.1-8.1,9.3-8.1,9.2,3.6,9.2,8.1-4.1,8.1-9.2,8.1Z" fill="#fff"/>
        <path d="M670.1,761.2v26.4c-6.4,1.9-12.9,3.5-19.4,4.9-14.8,3.1-30.1,4.9-45.7,5.1h0c-1.6,0-3.3,0-4.9,0s-2.8,0-4.1,0h-.1c-14.6-.2-28.9-1.8-42.8-4.4-7.8-1.5-15.6-3.4-23.1-5.6v-26.4l70.2,30,70.1-30Z" fill="#fff"/>
        <path d="M670.1,761.2v26.4c-6.4,1.9-12.9,3.5-19.4,4.9-14.8,3.1-30.1,4.9-45.7,5.1h0c-1.6,0-3.3,0-4.9,0s-2.8,0-4.1,0h-.1c-14.6-.2-28.9-1.8-42.8-4.4-7.8-1.5-15.6-3.4-23.1-5.6v-26.4l70.2,30,70.1-30Z" fill="#fff"/>
        <path d="M529.8,756.1l70.2,30.1,70.1-30.1h-140.3ZM600,777.8c-5.1,0-9.3-3.6-9.3-8.1s4.1-8.1,9.3-8.1,9.2,3.6,9.2,8.1-4.1,8.1-9.2,8.1Z" fill="#fff"/>
        <path d="M529.8,756.1l70.2,30.1,70.1-30.1h-140.3ZM600,777.8c-5.1,0-9.3-3.6-9.3-8.1s4.1-8.1,9.3-8.1,9.2,3.6,9.2,8.1-4.1,8.1-9.2,8.1Z" fill="#fff"/>
        <path d="M529.8,756.1l70.2,30.1,70.1-30.1h-140.3ZM600,777.8c-5.1,0-9.3-3.6-9.3-8.1s4.1-8.1,9.3-8.1,9.2,3.6,9.2,8.1-4.1,8.1-9.2,8.1Z" fill="#fff"/>
        <path d="M679.5,459.4c-1,0-2.1,0-3.1-.3-2.3-.4-4.5-.8-6.9-1.2h0c0,0,2.7,7,2.7,7,2.2,5.7,2.9,11.8,2.1,17.8,0,0,0,.1,0,.2-1.6,11.3-4.2,28.6-4.2,28.6-3.2,19.5-12.9,36.9-27.2,48.8l-.2.3c0,0-.1-.4-.2-.9-.9-5.2-4-9.9-8.5-12.7-2.4-1.5-5.2-3-7.9-3.9,0,0-31.3-9.3-61.9,1.4-.2,0-.4.2-.7.2-5.5,2.2-9.4,7.1-10.8,12.8-.3,1.3-.6,2.3-.9,2.6-13.7-11.2-22.7-28.5-25.7-47.2,0,0-3.5-21.3-5.4-32.7-.8-4.7-.6-9.6.5-14.3.6-2.4,1.3-5.1,2-7.6-.9.2-1.9.3-2.8.5-1,.2-2.1.3-3.1.3s-.7,0-1,0v1.2c0,.4,0,.8,0,1.1,0,3.2,0,5.8,0,7.7,0,1.9,0,3,0,3,0,9.1-.3,17.8-.3,17.8l.5,8.2h0s1.5,22.3,1.5,22.3c.7,10.2,3,20.2,7.3,29.4,5.8,12.7,13.1,23.8,21.3,32.9.3.4.7.7.9,1.1,2.3,2.4,4.7,4.7,7.1,6.8,1.8,1.6,3.7,3,5.6,4.4.2.1.4.3.6.4,11.1,7.9,23.5,12.3,36.7,12.3s25.5-4.4,36.6-12.2c.2-.1.4-.3.6-.4,2-1.4,4-3,5.9-4.6,2.2-1.9,4.3-3.9,6.3-6.1.4-.4,1.4-1.7,1.4-1.7h0c6.4-7.1,12.2-15.6,17.2-25.1,1.5-2.9,2.9-5.8,4.2-8.8,3.7-8.5,6.1-17.5,7.2-26.7l.6-5.1,2.3-19.5v-.3c.3-2,.6-18,.7-36.3v-1.8c-.3,0-.6,0-.9,0ZM607,575.6v-4c0-2.3-1.9-4.2-4.2-4.2h-9.1c-2.3,0-4.2,1.9-4.2,4.2v4.1c-13.3-1.3-23.1-5.5-23.1-10.5s14-10.9,31.3-10.9,31.3,4.9,31.3,10.9-9.3,9-22.1,10.4Z" fill="#fff"/>
        <path d="M566.8,335.3c-1.3,7.1-6.5,36.1-9.1,57.5-.9,6.8-1.4,12.7-1.6,17h0c0,.6,0,1.2,0,1.7v18.9c-6.1,1.2-12.1,2.6-18,4.3-10.3,2.9-20.1,6.7-29.5,11.1v-25.2h0v-14c0-15.1,5-29.9,14.7-41.5,11.4-13.6,26.4-24.1,43.5-29.9Z" fill="#fff"/>
        <path d="M688.4,406.8v39.2c-9.3-4.5-19.2-8.2-29.5-11.2-7.9-2.3-16.1-4.1-24.5-5.5v-17.8c0-4.3-.6-11-1.6-18.8-3.1-24.5-9.4-59.1-9.4-59.1-.1,0-.3-.3-.5-.5-.6-.2-1.2-.3-1.8-.4.6.1,1.2.3,1.8.4,20.1,5.2,37.8,16.6,50.7,32.1,9.7,11.6,14.7,26.4,14.7,41.5Z" fill="#fff"/>
        <path d="M688.4,451.1c-2.2,2.2-5,3.4-7.9,3.6-1,0-2.1,0-3.2-.2-3.1-.6-6.4-1.1-9.7-1.6-4.4-.7-8.9-1.3-13.5-1.8-17.3-2.1-36-3.2-55.6-3.2s-38.3,1.1-55.6,3.2c-6.2.7-12.1,1.6-17.9,2.5-1.8.3-3.5.6-5.3.9-1.1.2-2.2.2-3.3.2-2.9-.2-5.7-1.5-7.9-3.6h0s79.7-45.3,179.8,0Z" fill="#fff"/>
        <path d="M696.2,423.5v20.3c0,1.6-.6,2.9-1.5,3.7-.9.8-2.1,1-3.1.2h0v-30.4h.3c2.4,0,4.4,2.7,4.4,6.1Z" fill="#fff"/>
        <path d="M505.5,417.4v30.3h0c-1.1.8-2.3.6-3.1-.2-.9-.8-1.5-2.1-1.5-3.7v-20.3c0-3.4,2-6.1,4.4-6.1h.3Z" fill="#fff"/>
        <path d="M630.7,392.8c-2.9-24.5-8.9-59.1-8.9-59.1-.2-.1-.4-.5-.7-1-.7-1.3-1.6-3.3-2.7-3.7-1.5-.5-14.7-1.9-23.2-1.3-8.4-.5-21.7.8-23.2,1.3-1.5.5-2.7,4.3-3.4,4.7,0,0,0,.4-.2,1-1,5.9-6.1,36.1-8.7,58-.2,2.1-.5,4.1-.7,6.1,0,.7-.1,1.3-.2,1.9-.2,2.5-.4,4.8-.5,6.8,0,1.5-.1,2.9-.1,4v18.5c13-2.4,26.5-3.6,40.2-3.6s22.7.9,33.8,2.5v-17.4c0-4.3-.6-11-1.5-18.8ZM603.9,384.3l-12.4,19.5,3.6,1.4-9.4,7.8.3-11.2,3.6,1.3,5.9-14.9h-11l14.7-29.1,6.7,2.8-13.1,22.5h11Z" fill="#fff"/>
      </g>
      <g>
        <path d="M775.2,227.8h-36.5c-6.7,0-12.1,5.4-12.1,12.1v87.8c0,6.7,5.4,12.1,12.1,12.1h15.4v-.2h-.1c-1.3,0-2.4-.9-2.6-2.2h-12.7c-5.4,0-9.8-4.4-9.8-9.8v-87.8c0-5.4,4.4-9.8,9.8-9.8h36.5c5.4,0,9.8,4.4,9.8,9.8v87.8c0,4.6-3.3,8.5-7.6,9.5-.1,1.3-1.3,2.4-2.7,2.4h-.1v.2h.6c6.7,0,12.1-5.4,12.1-12.1v-87.8c0-6.7-5.4-12.1-12.1-12.1ZM766.1,337.5h-3.6c-.2,1.2-1.3,2.2-2.6,2.2h-.1v.2h9.1v-.2h-.1c-1.3,0-2.4-.9-2.6-2.2Z" fill="#fff"/>
        <path d="M759,281.9l-.8-1.6c-.5,0-.9,0-1.4,0s-.9,0-1.4,0l-.7,1.6c-.4.8-.6,1.7-.6,2.6v17.2s0,0,0,.1v8.1c.9.2,1.8.2,2.7.2s1.8,0,2.7-.2v-25.4c0-.9-.2-1.8-.6-2.6ZM755.3,283.9l1.6-2.8,1.6,2.8h-3.2Z" fill="#fff"/>
        <path d="M813.3,262.9c0-1.2-.8-2.1-1.7-2.1h-.3v-9.7l-1-6.6-1,6.6v9.7h-.3c-.9,0-1.6.9-1.7,2.1l-.8,9.4h7.5l-.8-9.4Z" fill="#fff"/>
        <path d="M797.6,241.9h-.3v-9.7l-1-6.6-1,6.6v9.7h-.3c-.9,0-1.6.9-1.7,2.1l-.8,9.4h7.5l-.8-9.4c0-1.2-.8-2.1-1.7-2.1Z" fill="#fff"/>
        <path d="M768.7,320.8h6c.9,0,1.7.7,1.7,1.7v6.8h-9.4v-6.8c0-.9.7-1.7,1.7-1.7Z" fill="#fff"/>
        <polygon points="776.4 332.3 776.4 330.8 767 330.8 767 332.3 770.4 332.3 770.4 333.9 767 333.9 767 335.4 776.4 335.4 776.4 333.9 773 333.9 773 332.3 776.4 332.3" fill="#fff"/>
        <path d="M753.9,320.8h6c.9,0,1.7.7,1.7,1.7v6.8h-9.4v-6.8c0-.9.7-1.7,1.7-1.7Z" fill="#fff"/>
        <polygon points="761.6 332.3 761.6 330.8 752.2 330.8 752.2 332.3 755.6 332.3 755.6 333.9 752.2 333.9 752.2 335.4 761.6 335.4 761.6 333.9 758.2 333.9 758.2 332.3 761.6 332.3" fill="#fff"/>
        <path d="M814.5,289.7l-.4-15.2h-7.5l-.4,15.2c0,.8,0,1.6,0,2.4l1.5,23.4c0,.7.5,1.3,1.1,1.5v41.8c0,4.7-3.9,8.6-8.6,8.6h-33.1c-4.7,0-8.6-3.9-8.6-8.6v-17.5h0c.2,0,.3-.1.3-.3v-2.6h1.9c.5,0,.9-.4.9-.9v-.7h-9.4v.7c0,.5.4.9.9.9h1.9v2.6c0,.2.1.3.3.3h0v17.5c0,6.4,5.2,11.7,11.7,11.7h33.1c6.4,0,11.7-5.2,11.7-11.7v-41.8c.6-.2,1.1-.8,1.1-1.5l1.5-23.4c0-.8,0-1.6,0-2.4Z" fill="#fff"/>
        <path d="M767.9,338.5h1.9v2.6c0,.2.1.3.3.3h0v3.3c0,6.4,5.2,11.7,11.7,11.7h4.4c6.4,0,11.7-5.2,11.7-11.7v-46.6c.6-.2,1.1-.8,1.1-1.5l1.5-23.4c0-.8,0-1.6,0-2.4l-.4-15.2h-7.5l-.4,15.2c0,.8,0,1.6,0,2.4l1.5,23.4c0,.7.5,1.3,1.1,1.5v46.6c0,4.7-3.9,8.6-8.6,8.6h-4.4c-4.7,0-8.6-3.9-8.6-8.6v-3.3h0c.2,0,.3-.1.3-.3v-2.6h1.9c.5,0,.9-.4.9-.9v-.7h-9.4v.7c0,.5.4.9.9.9Z" fill="#fff"/>
        <g>
          <path d="M775.2,231.1h-36.5c-4.9,0-8.8,4-8.8,8.8v87.8c0,4.9,4,8.8,8.8,8.8h12.6v-14.1c0-1.5,1.2-2.7,2.7-2.7h5.9c1.5,0,2.7,1.2,2.7,2.7v14.1h3.5v-14.1c0-1.5,1.2-2.7,2.7-2.7h5.9c1.5,0,2.7,1.2,2.7,2.7v13.8c3.8-1,6.6-4.4,6.6-8.5v-87.8c0-4.9-4-8.8-8.8-8.8ZM734.7,240.8c0-1.2,1-2.2,2.2-2.2h40.1c1.2,0,2.2,1,2.2,2.2v19.3c0,1.2-1,2.2-2.2,2.2h-40.1c-1.2,0-2.2-1-2.2-2.2v-19.3ZM769.5,280.7l-.6.7c-.8-.7-1.7-1.3-2.6-1.9l.5-.8c1,.6,1.9,1.2,2.7,2ZM764.4,277.6l-.4.9c-1-.4-2-.7-3-1l.2-.9c1.1.3,2.2.6,3.2,1ZM758.6,276.1v1c-1.1,0-2.2,0-3.2,0h0s0-1,0-1h0c1.1,0,2.2,0,3.3,0ZM752.8,277.5c-1,.2-2,.6-3,1l-.4-.9c1-.4,2.1-.8,3.2-1l.2.9ZM747.6,279.6c-.9.5-1.8,1.2-2.6,1.9l-.6-.7c.8-.7,1.7-1.4,2.7-2l.5.8ZM734.6,271.9v-1.8c0-1,.8-1.8,1.8-1.8h5.4c1,0,1.8.8,1.8,1.8v1.8c0,1-.8,1.8-1.8,1.8h-5.4c-1,0-1.8-.8-1.8-1.8ZM743.2,283.2c-.7.8-1.3,1.7-1.9,2.6l-.8-.5c.6-1,1.2-1.9,2-2.7l.7.6ZM740.2,288.1c-.4,1-.7,2-1,3l-.9-.2c.3-1.1.6-2.2,1-3.2l.9.4ZM737.8,296.8c0-.5,0-1.1,0-1.6s0-1.1,0-1.7h1c0,.6,0,1.1,0,1.7s0,1,0,1.5h0s-1,.1-1,.1h0ZM738.2,299.5l.9-.2c.2,1,.6,2,1,3l-.9.4c-.4-1-.8-2.1-1-3.2ZM742.1,328.8c-1.6,0-2.9-1.3-2.9-2.9s1.3-2.9,2.9-2.9,2.9,1.3,2.9,2.9-1.3,2.9-2.9,2.9ZM740.5,305l.8-.5c.5.9,1.2,1.8,1.9,2.6l-.7.6c-.7-.8-1.4-1.8-2-2.7ZM747,311.6c-1-.6-1.9-1.2-2.7-2l.6-.7c.8.7,1.7,1.3,2.6,1.9l-.5.8ZM752.6,313.9c-1.1-.3-2.2-.6-3.2-1l.4-.9c1,.4,2,.7,3,1l-.2.9ZM756.9,314.3c-.6,0-1.1,0-1.7,0v-1c1.1,0,2.2,0,3.2,0v.5c0,0,0,.5,0,.5-.5,0-1.1,0-1.6,0ZM761.2,313.9l-.2-.9c1-.2,2-.6,3-1l.4.9c-1,.4-2.1.8-3.2,1ZM756.9,312.1c-9.3,0-16.9-7.6-16.9-16.9s7.6-16.9,16.9-16.9,16.9,7.6,16.9,16.9-7.6,16.9-16.9,16.9ZM770.6,283.3l.7-.6c.7.8,1.4,1.7,2,2.7l-.8.5c-.5-.9-1.2-1.8-1.9-2.6ZM773.7,288.1l.9-.4c.4,1,.8,2.1,1,3.2l-.9.2c-.2-1-.6-2-1-3ZM766.7,311.6l-.5-.8c.9-.5,1.8-1.2,2.6-1.9l.6.7c-.8.7-1.8,1.4-2.7,2ZM771.3,307.8l-.7-.6c.7-.8,1.3-1.7,1.9-2.6l.8.5c-.6.9-1.2,1.9-2,2.7ZM774.5,302.7l-.9-.4c.4-1,.7-2,1-3l.9.2c-.3,1.1-.6,2.1-1,3.2ZM776,296.9h-1c0-.6,0-1.2,0-1.7s0-1,0-1.5h0c0,0,1-.1,1-.1h0c0,.6,0,1.2,0,1.7s0,1.1,0,1.7ZM779.2,271.9c0,1-.8,1.8-1.8,1.8h-5.4c-1,0-1.8-.8-1.8-1.8v-1.8c0-1,.8-1.8,1.8-1.8h5.4c1,0,1.8.8,1.8,1.8v1.8Z" fill="#fff"/>
          <path d="M742.1,323.9c-1.1,0-1.9.9-1.9,1.9s.9,1.9,1.9,1.9,1.9-.9,1.9-1.9-.9-1.9-1.9-1.9Z" fill="#fff"/>
        </g>
      </g>
      <g>
        <g>
          <path d="M887.7,630.4c3.5,3.5,8.2,5.1,12.8,4.9,1.9,0,3.8.7,5.2,2l19.7,19.7c.2-.1,1.1-.8,2.2-1.6,2.2-1.6,5.4-3.9,6.3-4.6.6-.5,2.7-2.6,4.9-4.9l-20.4-20.4c-1.4-1.4-2.2-3.4-2-5.5.4-4.9-1.3-10-5.1-13.6-5-4.9-12.4-6-18.4-3.3-.6.3-.7,1.2,0,1.5l7.7,4.2c2,1.1,2.7,3.6,1.6,5.5l-4.7,8.6c-1.1,2-3.6,2.7-5.5,1.6l-7.6-4.2c-.6-.3-1.3.2-1.2.9.5,3.4,2.1,6.6,4.7,9.3Z" fill="#fff"/>
          <path d="M978.1,682.2c-1.8,0-3.6-.7-4.9-2l-22.7-22.7c-2.3,2.2-4.5,4.3-4.9,4.9-.8,1-3.8,5.3-5.3,7.3l-.9,1.3,22,22c1.2,1.2,1.9,2.8,2,4.5.2,3.5,1.6,7,4.3,9.7,5.8,5.8,15.3,5.7,21-.3,5.4-5.6,5.4-14.6,0-20.2-2.9-3.1-6.8-4.6-10.7-4.6ZM987.9,697.6l-1.6,1.4c-.2.2-.3.4-.2.7l.6,2c.1.4-.1.7-.5.8l-2.1.5c-.2,0-.4.2-.5.5l-.5,2.1c0,.4-.5.6-.8.5l-2-.6c-.2,0-.5,0-.7.2l-1.4,1.6c-.2.3-.7.3-.9,0l-1.4-1.6c-.2-.2-.4-.3-.7-.2l-2,.6c-.4.1-.7-.1-.8-.5l-.5-2.1c0-.2-.2-.4-.5-.5l-2.1-.5c-.4,0-.6-.5-.5-.8l.6-2c0-.2,0-.5-.2-.7l-1.6-1.4c-.3-.2-.3-.7,0-.9l1.6-1.4c.2-.2.3-.4.2-.7l-.6-2c-.1-.4.1-.7.5-.8l2.1-.5c.2,0,.4-.2.5-.5l.5-2.1c0-.4.5-.6.8-.5l2,.6c.2,0,.5,0,.7-.2l1.4-1.6c.2-.3.7-.3.9,0l1.4,1.6c.2.2.4.3.7.2l2-.6c.4-.1.7.1.8.5l.5,2.1c0,.2.2.4.5.5l2.1.5c.4,0,.6.5.5.8l-.6,2c0,.2,0,.5.2.7l1.6,1.4c.3.2.3.7,0,.9Z" fill="#fff"/>
        </g>
        <path d="M988.1,608.3c-5.6-5.6-13.8-.3-14.6.2,0,0,0,0,0,0-5.3,2.9-11.6,7.2-16.6,13.5-3.3,4.1-5.5,8.2-7.2,11.6-1.7,3.5-2.9,6.4-3.9,8-.2.3-1.2,1.7-1.6,2.1-2.8,3.4-7.6,8.2-8.7,9.1-1.4,1.1-8,5.8-8.6,6.3-.6.5-1.3,1.3-1.3,1.6,0,.4.9,1.2.8,1.7,0,.5-.4,1.5-.6,2.3-.2.8-.4,1.1.1,1.8l-24.4,25-.3.2c-5.9,2.6-7.4,3.8-7.8,4.1-1.9,1.8-6.1,7.1-8.2,9.6l6,6c2.5-2,7.8-6.3,9.6-8.2.3-.3,1.5-1.8,4.1-7.8l.2-.3,25-24.4c.7.5,1,.4,1.8.1.8-.2,1.8-.5,2.3-.6.5,0,1.3.8,1.7.8.4,0,1.2-.7,1.6-1.3.5-.6,5.2-7.2,6.3-8.6.9-1.1,5.6-5.9,9.1-8.7.4-.4,1.8-1.4,2.1-1.6,1.6-1.1,4.4-2.2,8-3.9,3.4-1.7,7.5-3.9,11.6-7.2,6.3-5,10.6-11.3,13.5-16.6,0,0,0,0,0,0,.5-.9,5.7-9.2.2-14.6ZM986.5,615.2c-1.3,1.3-3.6,1.2-5.1-.2-1.5-1.5-1.6-3.7-.2-5.1,1.3-1.3,3.6-1.2,5.1.2,1.5,1.5,1.6,3.7.2,5.1Z" fill="#fff"/>
      </g>
      <g>
        <path d="M386,404.8h5v1.4c0,16.3-13.3,29.6-29.6,29.6s-29.6-13.3-29.6-29.6v-12.4h5v12.4c0,13.6,11,24.6,24.6,24.6s24.6-11,24.6-24.6v-1.4Z" fill="#fff"/>
        <path d="M379.8,322.1v13.9h-3.6v-13.9c0-1,.8-1.8,1.8-1.8s.9.2,1.3.5c.3.3.5.8.5,1.3Z" fill="#fff"/>
        <path d="M400.8,322.1v13.9h-3.6v-13.9c0-1,.8-1.8,1.8-1.8s.9.2,1.3.5c.3.3.5.8.5,1.3Z" fill="#fff"/>
        <path d="M368.3,338.7v5.8l5.1,2.4v11.9l6.6,14.5h16.8l6.6-14.5v-11.9l5.1-2.4v-5.8h-40.3ZM395.7,358.7h-14.4c-.5,0-.9-.4-.9-.9s.4-.9.9-.9h14.4c.5,0,.9.4.9.9s-.4.9-.9.9ZM395.7,355.1h-14.4c-.5,0-.9-.4-.9-.9s.4-.9.9-.9h14.4c.5,0,.9.4.9.9s-.4.9-.9.9ZM395.7,351.5h-14.4c-.5,0-.9-.4-.9-.9s.4-.9.9-.9h14.4c.5,0,.9.4.9.9s-.4.9-.9.9Z" fill="#fff"/>
        <polygon points="380.2 377.8 380.2 377.8 380.1 376.2 380.2 377.8" fill="#fff"/>
        <polygon points="381 391.4 380.7 386.9 380.7 386.9 381 391.4" fill="#fff"/>
        <path d="M389.6,382.3c0,.6.5,1.1,1.1,1.1h5.8l-.3,4.6h-5.5c-.6,0-1.1.5-1.1,1.1s.5,1.1,1.1,1.1h5.4l-.3,4.6h-5.1c-.6,0-1.1.5-1.1,1.1h0c0,.6.5,1.1,1.1,1.1h5v1.7h-3.2v3.3h-7.9v-3.3h-3.1l-.3-5.1h5.2c.6,0,1.1-.5,1.1-1.1s-.5-1.1-1.1-1.1h-5.3l-.3-4.6h5.6c.6,0,1.1-.5,1.1-1.1s-.5-1.1-1.1-1.1h-5.7l-.3-4.6h6c.6,0,1.1-.5,1.1-1.1s-.5-1.1-1.1-1.1h-6.1v-1.7c-.1,0,16.7,0,16.7,0l-.3,5.1h-5.9c-.6,0-1.1.5-1.1,1.1Z" fill="#fff"/>
        <polygon points="396.9 376.2 396.6 381.2 396.6 381.2 396.9 376.2" fill="#fff"/>
        <g>
          <path d="M340.1,387.3v1.7c0,1.1-.9,2.1-2.1,2.1h-7.5c-1.1,0-2-.9-2-2.1v-1.7h11.6Z" fill="#fff"/>
          <polygon points="347.4 370 347.4 374 321.1 376.6 321.1 372.5 347.4 370" fill="#fff"/>
          <polygon points="347.4 377.9 347.4 382 321.1 384.5 321.1 380.5 347.4 377.9" fill="#fff"/>
          <g>
            <path d="M342.5,287.2c-5.4-1.8-11.2-1.8-16.6,0-10,3.4-25.3,12.3-22.8,34.3,1.1,10,7.4,14.5,13.3,29.7,0,0,1.2,1.9,1.5,9.5.2,4.2,2,5.8,3.6,6.4h8.4l-4.1-41.7h-6.4c-1.6,0-3.2-.5-4.5-1.4-2.2-1.5-3.5-3.9-3.5-6.6,0-4.4,3.6-8,8-8s6.7,2.4,7.7,5.8c.1.4.2.9.3,1.4l.6,6.4h12.5l.6-6.4c0-.5.1-.9.3-1.4,1-3.4,4.1-5.8,7.7-5.8s8,3.6,8,8-1.3,5.1-3.5,6.6c-1.3.9-2.9,1.4-4.5,1.4h-6.4l-4.1,41.7h8.4c1.6-.6,3.5-2.1,3.6-6.4.3-7.6,1.5-9.5,1.5-9.5,5.9-15.2,12.2-19.7,13.3-29.7,2.4-22-12.8-30.9-22.8-34.3Z" fill="#fff"/>
            <path d="M319.4,311.7c-3.1,0-5.6,2.5-5.6,5.6s2.5,5.6,5.6,5.6h6.2c-.2-1.6-.6-6.2-.6-6.3-.3-2.9-2.7-5-5.6-5Z" fill="#fff"/>
            <polygon points="328.2 325.3 332.3 367 336.2 367 340.3 325.3 328.2 325.3" fill="#fff"/>
            <path d="M354.7,317.4c0-3.1-2.5-5.6-5.6-5.6s-5.3,2.2-5.6,5c0,0-.5,4.6-.6,6.3h6.2c3.1,0,5.6-2.5,5.6-5.6Z" fill="#fff"/>
          </g>
        </g>
      </g>
      <g>
        <path d="M534.1,211.4c-.1,0-.2,0-.4-.1l-8.4-3.1s-1.1-.4-1.8-.6c0,.6-.7,1.7-1.2,3.4,0,.2-.8,2.1-2.6,2-.3,0-1.8,0-2.3.3,0,0-.6.3-.7.8-.2.6.2,1.2.4,1.4.5.8,1.9,3.9,2.5,5.8.1.4.4,1.1-1.1,5.1,0,.2-.2.4-.3.7,0,.2-.1.3-.2.5,0,.2-.2.5-.3.7-1.3,3.2-1.7,4.2-1.7,4.2-.4.8-2,4.2-3.3,7-.7,1.5-1.3,2.8-1.5,3.6-.2.7-.3,1.8-.5,3-.5,2.6-1,6-1.1,9.8-.2,5.5-.9,15.1-.8,18.1-.2,6.3-.3,12.4-.4,18.7,0,.7,0,1.4.2,2.1,0,.2.1.3.2.5,0,.2.1.3.2.5.3.5.6,1,1.1,1.4,0,0,0,0,0,0,0,0,0,0,0,0,0,0,0,0,0,0,0,0,.2.2.3.2,0,0,0,0,.1,0,.7.5,1.6.9,2.6,1,.1,0,.2,0,.3,0,0,0,0,0,0,0,0,0,.1,0,.2,0,0,0,0,0,.1,0,0,0,.1,0,.2,0,0,0,0,0,0,0,.1,0,.2,0,.3,0,0,0,0,0,0,0,0,0,.2,0,.3,0,0,0,0,0,0,0,0,0,.1,0,.2,0,0,0,0,0,0,0,0,0,.2,0,.2,0,0,0,0,0,0,0,0,0,.2,0,.3-.1h0c1.7-.7,3-2.3,3.2-4.3.4-2.4.9-6,1-10.5.4-13.5-.2-15.8,1.2-26.8,0,0,1.2-10.1,4-17.4.2-.4.9-2.3,1.8-4.5,1.4-3.4,1.6-4.8,2.9-6.9,1.2-1.9,1.4-1.3,1.7-2.7.6-2.9.6-4.3,1.8-9.1,1.2-4.3.9-4.2.6-4.4Z" fill="#fff"/>
        <path d="M566.1,292.9c-.1-5.8-.2-11.5-.4-17.3,0-.5,0-.9,0-1.4.1-3-.4-12.6-.6-18.1-.2-5.5-1.1-10.4-1.7-12.7-.6-2.3-4.1-9.4-4.7-10.6,0,0-.5-1.1-1.7-4.2-2.2-5.7-2-6.5-1.8-7,.6-1.9,2.1-5,2.6-5.8.1-.2.5-.8.4-1.4h0c-.1-.5-.6-.8-.7-.8-.5-.3-2-.4-2.3-.3-1.8,0-2.6-1.8-2.6-2-.5-1.8-1.2-2.8-1.2-3.4h0s0,0,0,0c-.8.3-1.8.6-1.8.6l-8.4,3s1.9-.7-.4.1c-.3.1-.5,0,.6,4.4,1.3,4.8,1.2,6.2,1.8,9.1.3,1.4.6.8,1.7,2.7,1.3,2.1,1.5,3.5,2.9,6.9.9,2.3,1.6,4.1,1.8,4.5,2.8,7.3,4,17.4,4,17.4,1.4,11,.8,13.3,1.2,26.8.1,4.6.6,8.1,1,10.5.3,2.9,2.9,5,5.8,4.7.8,0,1.5-.3,2.2-.7,0,0,0,0,0,0,0,0,.2-.1.3-.2,0,0,.2-.1.3-.2,0,0,0,0,0,0,0,0,.1,0,.2-.1,0,0,0,0,0-.1.2-.1.3-.3.4-.5,0,0,.1-.1.2-.2.1-.1.2-.3.3-.4,0,0,0,0,0-.1,0-.1.2-.3.2-.5,0-.2.1-.3.2-.5.2-.7.3-1.4.2-2.1Z" fill="#fff"/>
        <path d="M525.9,207.9c.2-.9.5-2,.8-3.1.3-1.1.5-2.1.8-3.1h.3c.8,3.3,3.3,5.9,6.5,7l-.9,1.9-7.5-2.7Z" fill="#fff"/>
        <circle cx="537.5" cy="199.5" r="3.4" fill="#fff"/>
        <path d="M546.4,176.1l-2.8-12.2-2.6-.3-.7,7.4h0c1.3.1,2.1,2.5,1.9,5.2-.3,2.8-1.5,4.9-2.8,4.8,0,0,0,0,0,0l-.9,8.5h.4c3.9.6,7.1,3.5,7.9,7.3h0c0-.1.7,0,.7,0l.5-4.8.7-6.2-2.3-9.6Z" fill="#fff"/>
        <path d="M547.7,201.4h-.8c0,0-.4-2.9-.4-2.9,0,0,0,0,0,0v-.2c-.5-3.9-3.5-6.9-7.1-7.7h-.7s-2.1.2-2.1.2l-.2-1.2s-.9-8.5-1-8.5c-1.3.1-2.4-2-2.7-4.8-.3-2.8.6-5.1,1.9-5.2h0s-.7-7.3-.7-7.3h0s0,0,0,0l-2.6.3-2.8,12.2-2.3,9.6v.2s0,0,0,0l1.2,11.3h.7c0,0,.2,2.6.2,2.6v.4c.5,5,5,8.6,10,8.1h1.3c0-.1,0,0,0,0l1.1,2.5,8.5-3.2c-.5-2.1-1.1-4.3-1.6-6.4ZM540.6,202.7c-1.8,1.8-4.6,1.8-6.4,0-1.8-1.8-1.8-4.6,0-6.4s4.6-1.8,6.4,0,1.8,4.6,0,6.4Z" fill="#fff"/>
      </g>
      <g>
        <g>
          <path d="M932.3,440.6c3.3-4.2,5.8-7.6,6.3-8.6,1.6-3.4,1.6-5.7-1.9-5.3-.7,0-1.9.9-3.4,2.1-.3,3.9-.7,7.9-1,11.8Z" fill="#fff"/>
          <path d="M913.4,429.3c.2,3.5.4,8.3.8,11.4.9-1.6,3.9-7.5,7.2-14.1,1.6-9,3.3-18.9,3.7-20.1.6-1.9,3.6-2.7,6.1-2,.1-2-.4-3.4-1.6-4-1.6-.9-4.3-.5-5.6,1.9-.7,1.3-6,10.8-11.1,19.5.3,3.3.4,6,.5,7.5Z" fill="#fff"/>
          <path d="M918.6,442.1c-1,.9-1.9,1.7-2.7,2.3,1,.4,2.2-.2,2.7-2.3Z" fill="#fff"/>
          <path d="M887.7,453.7c.7-.2,1.6-2.1,1.1-4.8-.5-2.7-4.2-35.4-3.8-38.3.4-3,1.6-4.8,3.3-5.1,1.1-.2,2.4.2,3.4,1.2,1.5-8.4,3-16.8,3.1-18,.2-3.1-6.1-5.7-8.7-2.8-1.6,1.8-8.2,26.6-12.6,42.6,3.8,4.4,12.7,25.7,14.3,25.3Z" fill="#fff"/>
          <path d="M883,483.9c-.9-7.9-1.1-12.2-1.1-12.2,0,0-7.7-22.2-11.2-33.5-.7,2.3-1.2,3.7-1.4,3.8-1.2.5-3.6-10.5-6.4-17.3-2.8-6.8-2.7-8.9-5.3-10.4-2.6-1.4-5.9-.2-6.9,3.7-.9,3.8.9,28.8,2.9,37.9,1.9,9.1,5.4,19.3,5.4,19.3l24,8.9c0,0,0-.1,0-.2Z" fill="#fff"/>
          <path d="M909.6,399.7c.8,1,1.6,5.5,2.2,10.6,3.6-8.1,7.2-16.4,6.9-18.4-.6-3.9-4.3-5.9-7.1-4.3-1.3.8-3.9,5.4-6.6,10.7,1.7-.4,3.4,0,4.5,1.3Z" fill="#fff"/>
          <path d="M900.5,448.2c1.8,1.1,2.5-2.9,2-12.1-.4-.4-.5-1.3-.2-2.9-.5-7.3-1.5-19-1.5-26.1-1.4,3-2.5,5.6-3.1,6.9-.9,2.1-2,4.7-3,7,1.9,11.2,4.6,26.5,5.8,27.2Z" fill="#fff"/>
        </g>
        <g>
          <path d="M929.2,501.1h-42.4l-.3-.6c-.1-.3-3.7-8.6-4.6-16.5-.8-7.1-1.1-11.3-1.1-12.1-1.5-4.3-12.6-36.2-12.9-39.8-.2-2.6,0-4.2.9-5.1.5-.5,1.1-.8,1.9-.8s1.4.2,2.2.6c1.8.9,4.6,6.3,9,15.2,2,4,4.4,8.9,5.6,10.4.3-.6.5-1.7.2-3.4-.3-1.8-4.2-35.4-3.8-38.6.4-3.4,1.9-5.6,4.1-5.9,2.3-.4,5.2,1.2,5.8,4.5,0,.3.1.9.3,1.8,4.6,28.8,6.3,35.2,6.9,36.5.3-.6.9-2.9.5-11.2-.1-2.4-.4-5.7-.6-9.3-1-13.8-1.6-23.7-.4-26,1.2-2.2,3.4-3.6,5.7-3.6s3,.7,4,1.9c2.6,3.2,4,29.8,4.1,30.1.5,11.7,1.2,13.6,1.4,13.9.2.3.4.4.7.4.4,0,.9-.4,1.2-1.7.3-1.2,1.4-7.5,2.6-14.1,2.1-11.8,3.6-20.3,4-21.6.6-2,3.1-3,5.3-3s4.8.9,5.7,3.3c.8,2-.3,15.5-2.1,35.9-.8,8.7-1.5,17.7-1.7,21.2,1-1.2,2.6-3.2,3.9-4.9,2-2.6,4.3-5.6,6.4-7.9,1.4-1.5,2.5-2.8,3.3-3.8,2.2-2.7,3.3-4,5.8-4.4.3,0,.6,0,.9,0,1.6,0,3,.6,4,1.8,1.2,1.3,1.7,3.1,1.4,5.2-.5,4.1-10.9,27-15.9,35-4.9,7.9-11.7,16.2-11.8,16.3l-.3.4ZM888.1,499.1h40.1c1.3-1.7,7.1-8.9,11.4-15.8,5.2-8.3,15.2-30.6,15.6-34.2.2-1.5-.2-2.8-1-3.6-.8-.9-1.9-1.3-3.1-1.1-1.7.3-2.5,1.2-4.6,3.7-.9,1-2,2.3-3.4,3.9-2,2.2-4.3,5.2-6.3,7.8-4,5.2-5.1,6.5-6.2,6.5h0c-.3,0-.6-.1-.8-.3-.6-.6-.7-.7,1.3-23.8,1.2-14,2.9-33.1,2.2-35-.6-1.5-2.5-2-3.9-2s-3.1.7-3.4,1.6c-.4,1.3-2.4,12.4-3.9,21.4-1.2,6.9-2.3,12.9-2.6,14.2-.7,3-2.5,3.2-3.1,3.2-.9,0-1.7-.5-2.3-1.3-.5-.8-1.2-3.3-1.7-14.9-.3-7.5-2-27-3.6-29-.6-.7-1.5-1.2-2.5-1.2-1.6,0-3.1,1-4,2.6-1,1.9,0,15.7.6,24.9.3,3.6.5,6.9.6,9.3.5,9.7-.4,12-1.2,12.8-.4.5-.9.6-1.3.6s-.7-.1-1.1-.3c-.7-.5-2-1.2-7.8-37.9-.1-.9-.2-1.5-.3-1.8-.4-2.1-2.1-3.2-3.5-2.9-1.2.2-2.1,1.8-2.5,4.3-.3,2.6,3.3,35.1,3.8,38.1.5,2.9-.3,5.5-1.8,5.9,0,0-.2,0-.3,0h0c-1.3,0-2.3-1.7-7.4-11.8-2.7-5.4-6.8-13.6-8.1-14.3-.7-.3-1.1-.4-1.4-.4s-.4,0-.4.2c-.2.2-.6,1-.4,3.6.2,2.9,9.3,29.4,12.8,39.4h0c0,.1,0,.3,0,.3,0,0,.2,4.4,1.1,12.1.7,6.5,3.4,13.4,4.2,15.4Z" fill="#fff"/>
          <path d="M906.6,538c-10.2,0-27.2-2.9-27.3-2.9l-1-.2,8.3-33.2h42.9c1.5,7.6,3,15.2,4.5,22.8.7,3.8,1.9,7.6,2.2,11.4,0,0-27.2,2.1-29.7,2.1ZM880.7,533.3c6.6,1.1,13.2,2,19.8,2.5,9.4.7,19-.2,28.4-1.1,1.7-.2,3.4-.4,5.1-.5-1.7-7.6-3-15.2-4.6-22.8l-1.5-7.7h-39.8s-7.4,29.7-7.4,29.7Z" fill="#fff"/>
        </g>
        <path d="M887.4,502.6h8.4l.3-2.5h-8.5s-2.7-6.3-4-13.2c0,0-25.2-9.3-25.2-9.3h0c-4.3,7-8.6,14-12.9,21-.9,1.5-1.8,3-2.8,4.5-.6,1-1.8,2.2-1.1,3,1.1,1.2,4.4,2,6,2.7,2.1.9,4.2,1.9,6.2,2.8,9.3,4.7,18.8,7.9,29,10.2l4.8-19.2Z" fill="#fff"/>
      </g>
    </g>
  </g>
</svg>