<?xml version="1.0" encoding="UTF-8"?>
<svg xmlns="http://www.w3.org/2000/svg" baseProfile="tiny" version="1.2" viewBox="0 0 570.7 174.6">
  <!-- Generator: Adobe Illustrator 28.6.0, SVG Export Plug-In . SVG Version: 1.2.0 Build 709)  -->
  <g>
    <g id="Layer_1">
      <g>
        <path d="M64.8,0C37.8,35.1,0,21.6,0,21.6v80.7c0,50.5,62.6,72.4,64.8,72.4s64.8-21.9,64.8-72.4V21.6S91.7,35.1,64.8,0Z" fill="#6ec24f"/>
        <polygon points="61.8 117.1 33.9 89.2 43 80.1 61.8 98.9 94.2 66.4 103.3 75.5 61.8 117.1" fill="#fff"/>
      </g>
      <path d="M550.3,23.9c-.2,0-.4,0-.7,0l-409.4,13.1v11.8l409.8-13.1c0,0,.2,0,.3,0,4.7,0,8.6,3.9,8.6,8.6v58.9c0,4.7-3.7,8.4-8.3,8.6l-414.1,13.2c-1.4,4.1-3.2,8.1-5.4,12l420-13.4c11-.4,19.7-9.4,19.7-20.4v-58.9c0-11.3-9.2-20.4-20.4-20.4Z" fill="#6ec24f"/>
      <path d="M215.3,68.2c3.4,2.8,5.1,7,5.1,12.5l-12.2.4c0-2.3-.6-4.1-1.8-5.4-1.2-1.3-2.9-1.9-5.2-1.9-2.6,0-4.5,1-5.7,2.6-1.2,1.7-1.8,3.9-1.8,6.8v3.7c0,2.9.6,5.1,1.8,6.7,1.2,1.6,3.1,2.4,5.6,2.3,2.5,0,4.3-.8,5.6-2.1,1.3-1.3,1.9-3.1,1.9-5.4l11.8-.4c0,5.4-1.7,9.6-5,12.6-3.3,3-8,4.6-14.1,4.8-6.8.2-11.9-1.3-15.4-4.7s-5.2-8.4-5.2-15.2,1.7-12,5.2-15.5c3.5-3.6,8.6-5.5,15.4-5.7,5.9-.2,10.6,1.1,14,4Z" fill="#6ec24f"/>
      <path d="M227.3,64.1l34.4-1.1v9.5l-21.6.7v5.5l18.5-.6v9.1l-18.5.6v6.1l22-.7v9.5l-34.8,1.1v-39.7Z" fill="#6ec24f"/>
      <path d="M304.8,80.4c-1.3,2-3.2,3.5-5.7,4.5l8.8,16.4-14.3.5-7-14.3-4.7.2v14.5l-12.8.4v-39.7l24.3-.8c2.8,0,5.3.4,7.3,1.4s3.5,2.5,4.6,4.3c1,1.8,1.5,3.8,1.5,6s-.7,4.6-2,6.6ZM292.7,72.1c-.7-.7-1.5-1-2.5-1l-8.4.3v7.3l8.4-.3c1,0,1.8-.4,2.5-1.2.7-.7,1-1.6,1-2.7s-.3-1.9-1-2.6Z" fill="#6ec24f"/>
      <path d="M336.3,70.8v29.6l-12.8.4v-29.6l-13.1.4v-10.2l38.8-1.3v10.2l-13,.4Z" fill="#6ec24f"/>
      <path d="M355.7,99.7v-39.7l12.8-.4v39.7l-12.8.4Z" fill="#6ec24f"/>
      <path d="M377.6,59.3l32.1-1v9.5l-19.4.6v6.8l16.6-.5v9.1l-16.6.5v14.3l-12.8.4v-39.7Z" fill="#6ec24f"/>
      <path d="M416.7,97.8v-39.7l12.8-.4v39.7l-12.8.4Z" fill="#6ec24f"/>
      <path d="M438.6,57.3l34.4-1.1v9.5l-21.6.7v5.5l18.5-.6v9.1l-18.5.6v6.1l22-.7v9.5l-34.8,1.1v-39.7Z" fill="#6ec24f"/>
      <path d="M449.9,51.9l4.4-5.6,14.8-1.4-7.8,6-11.5,1.1Z" fill="#6ec24f"/>
    </g>
  </g>
</svg>