<?xml version="1.0" encoding="UTF-8"?>
<svg xmlns="http://www.w3.org/2000/svg" baseProfile="tiny" version="1.2" viewBox="0 0 470.1 359.8">
  <!-- Generator: Adobe Illustrator 28.6.0, SVG Export Plug-In . SVG Version: 1.2.0 Build 709)  -->
  <g>
    <g id="Layer_1">
      <g>
        <polygon points="173.3 103.3 173.3 103.6 173.1 103.6 172.9 103.6 161.8 122.7 166 139.2 173.8 150.3 173.3 150.6 162.6 153.8 152.1 156.7 148.8 167.9 132.8 173.4 129.6 184.4 135.4 197.7 123.7 210.8 108.5 209.2 113.5 219.1 105.6 226.5 101.4 242.9 101.4 243.3 94.9 244 89.9 241.4 80.7 235.1 77.8 232 75.8 228.9 74.4 224.6 74.4 224.1 74.4 222 75.2 217.6 75.3 215.8 75.3 213.6 75.2 211.1 74.7 208.4 73.1 205.1 71 203 67.4 200.6 65.9 198.2 65.4 196.1 65.4 191.7 64.8 188.8 62.4 186.2 53 177.9 50.4 174.4 48.9 171.1 47.8 165.5 46.5 163.7 43.4 161.4 43.1 159.8 43.1 158 43.9 156.1 45.4 154.1 48.8 150.6 50.1 148.6 50.7 146.2 50.9 145.2 50.9 144.6 45.4 140.4 44.4 138.4 43.9 136.8 43.9 133.7 44.1 132.4 44.4 130.8 44.9 129 46.5 124.7 47.2 121.9 47.5 119.2 47 114.8 45.7 111.9 43.1 107.4 34.7 84.4 34.2 80.6 34 78.5 34.5 76.4 35 74 33.9 72.9 32.3 72.2 30.3 71.7 28.9 70.9 28.1 69.3 28.1 67.4 28.5 65.7 29.3 63.5 29.7 62.3 29.8 60.6 29.5 58.5 28.1 53.9 28.5 51.8 30.6 50.4 56.9 47.1 65 43.7 65.8 41.8 65.8 41.8 85.8 54.1 105.4 52.6 127.8 70.6 153.2 74.5 170.2 87.4 173.3 103.3" fill="#6b88ba" stroke="#fff" stroke-linecap="round" stroke-linejoin="round"/>
        <polygon points="174.1 151.9 187.4 163.7 191.1 162.2 195.9 160.3 206.5 167.7 225.7 169.7 236.6 176.3 237.1 189.4 227.2 195.7 229.3 224.1 224.6 229.6 218.8 257.1 224.8 267.1 199.8 280.1 196.7 294.8 189 295.2 180.6 289 178.5 289 177 290.1 175.5 292.1 172.9 293.5 167.6 294.5 165.3 293.4 164.2 291.8 164 289.8 163.1 287.5 161.5 285.6 158.9 283.2 156.9 283.2 155.3 284.3 153.2 288 151.9 289.8 149.8 291.3 142.7 293.9 112.4 297.4 109.3 294.8 109.2 293.2 109.6 291.6 110.8 290.1 112.7 288.5 116.1 284.5 116.1 282.9 115.5 281.7 112.1 279.1 110.6 275.7 110 271.8 109.6 264.6 108.5 261.2 106.9 258.9 105.3 257.1 103.7 254.5 103.2 251.9 103.8 244.8 102.4 243.2 101.4 243.3 101.4 242.9 105.6 226.5 113.5 219.1 108.5 209.2 123.7 210.8 135.4 197.7 129.6 184.4 132.8 173.4 148.8 167.9 152.1 156.7 162.6 153.8 173.3 150.6 173.8 150.3 174.1 150.7 174.1 151.9" fill="#7590bf" stroke="#fff" stroke-linecap="round" stroke-linejoin="round"/>
        <polygon points="175.1 103.5 173.3 103.6 173.3 103.3 170.2 87.4 153.2 74.5 127.8 70.6 105.4 52.6 85.8 54.1 65.8 41.8 65.8 41.8 78.2 12 85.5 .5 88.1 3.6 88.4 5.8 88.8 9.2 89.9 11.7 92 13.9 94.3 14.9 96.4 15.6 102.8 16.2 111.8 20.4 117.6 21.9 121 23.8 128.1 22.7 137.5 23.5 141.5 23.2 144.6 21.9 153.8 16.4 156.4 15.1 159.4 14.4 161.3 15.1 162.6 16.5 163.9 18.5 166.1 20.6 171.2 24 174.1 24.1 178.8 25.8 190.9 32.9 194 33.7 196.7 33.9 203.9 30.1 207.6 29.5 210.8 30.8 243.5 53.9 245.5 54.3 249 52.8 250.5 53.8 251.5 55.5 252.1 57.2 253.7 60.1 255.5 61.9 249.4 85 249.4 85 249.4 85 238.8 91 222.8 96.5 194.6 95.4 175.1 103.5" fill="#738fbe" stroke="#fff" stroke-linecap="round" stroke-linejoin="round"/>
        <polygon points="193.2 139.9 193.5 139.9 193.5 139.9 191.1 146.2 192.4 149.3 189 156.9 191.1 162.2 187.4 163.7 174.1 151.9 174.1 150.7 173.8 150.3 166 139.2 161.8 122.7 172.9 103.6 173.1 103.6 173.3 103.6 175.1 103.5 194.6 95.4 195.1 99.3 197.4 100.1 199.2 103.6 196.6 108 193.7 108.3 195.1 113.3 189 115.4 186.1 118.5 180.6 118.2 175.1 123.4 174.7 126.6 175.5 130.3 183.6 133.6 193.2 139.9" fill="#597ab2" stroke="#fff" stroke-linecap="round" stroke-linejoin="round"/>
        <polygon points="212.9 135.8 214.2 135 213.9 133.3 220.5 133.6 222.2 134.4 221.8 138 219.7 141.4 210.3 138.9 208.9 137.5 204.2 140.2 199.7 140.9 193.5 139.9 193.2 139.9 183.6 133.6 175.5 130.3 174.7 126.6 175.1 123.4 180.6 118.2 186.1 118.5 189 115.4 195.1 113.3 208.7 114.6 212.3 121.8 212.1 131.2 212.5 131.3 211.8 133.6 210.8 135.7 212.9 135.8" fill="#28529b" stroke="#fff" stroke-linecap="round" stroke-linejoin="round"/>
        <polygon points="212.5 131.3 212.5 131.3 212.1 131.2 212.3 121.8 208.7 114.6 195.1 113.3 193.7 108.3 196.6 108 199.2 103.6 197.4 100.1 195.1 99.3 194.6 95.4 222.8 96.5 238.8 91 249.4 85 249.4 85 247.1 93.3 249.5 130.7 247.9 145.9 242.9 144.1 241.8 141.4 239.8 140.2 235.6 134.6 228 129 221.5 127.9 216.8 131 212.5 131.3" fill="#6b88ba" stroke="#fff" stroke-linecap="round" stroke-linejoin="round"/>
        <polygon points="212.5 131.3 216.8 131 221.5 127.9 228 129 235.6 134.6 239.8 140.2 241.8 141.4 242.9 144.1 247.9 145.9 246.9 155.3 236.6 175 236.6 176.3 225.7 169.7 206.5 167.7 195.9 160.3 191.1 162.2 189 156.9 192.4 149.3 191.1 146.2 193.5 139.9 193.5 139.9 199.7 140.9 204.2 140.2 208.9 137.5 210.3 138.9 219.7 141.4 221.8 138 222.2 134.4 220.5 133.6 213.9 133.3 214.2 135 212.9 135.8 210.8 135.7 211.8 133.6 212.5 131.3" fill="#28529b" stroke="#fff" stroke-linecap="round" stroke-linejoin="round"/>
        <polygon points="432.1 219.2 436.2 225.7 426.5 232.8 422.6 238 420.7 243.2 418.9 246.7 416.6 248.7 414 249.3 411.6 249 408.4 249.7 407.2 250.5 406.6 252.1 407.4 254 409.3 257.6 409.5 258.7 408.7 260.3 404.1 263.6 402.8 265.5 402.4 267.5 404.1 272 404.1 273.3 403.8 274.6 402.4 278.3 401.6 281.7 402 284.6 396.4 290 392.8 295.3 390.9 296.1 389.1 295.6 385.2 293.9 383.3 293.4 362.4 295.2 359.3 294.7 357 293.4 347.2 291.8 345 291.9 343.3 292.4 342.1 293.1 340.4 294.3 339.1 294.5 329 293.4 327.6 294.3 326.6 295.3 325.8 297.6 325.1 300.3 324.5 302 323.4 303.6 322.4 305.4 321.7 307.3 321.4 309.2 321.2 311.3 321.2 313.4 321.4 315.6 322.2 317.7 323.4 319.6 323.8 321.5 323.2 323.5 322.2 325.1 320.8 326.7 320.6 327.2 318.3 331.1 317 333 314.4 335.1 307.6 337.7 305.2 339.2 303.8 340.8 302.8 342.4 301.5 346 300.7 349.7 299.4 353.8 278.2 359.3 275.3 359.3 272.2 358.1 272.4 356.4 273.3 354.4 274.3 352.8 274 351.2 271.5 349.9 265.9 349.9 262.6 350.7 260.5 352.5 258.8 354.4 256.7 356.4 252.1 358.6 249.4 359.3 221.7 354.1 218.3 354.2 210.8 355.5 207.9 355.2 205 354.2 203.2 352.6 201.9 350.8 201.9 349.1 202.4 347 203.5 345.3 205.3 344.4 207.1 344.4 212.1 346.2 212.9 346 214.2 345 214.7 343.4 214.4 341.5 213.4 339 213.4 338.4 213.4 337.6 216 334 216.7 332.1 217 330.1 215.7 327.4 213.4 324.1 202.7 315.2 202.4 314.7 202.3 313.8 200.6 302.1 199.7 299.2 197.1 294.8 196.7 294.8 199.8 280.1 224.8 267.1 218.8 257.1 224.6 229.6 229.3 224.1 227.2 195.7 237.1 189.4 236.6 176.3 236.6 175 246.9 155.3 247.9 145.9 249.5 130.7 247.1 93.3 249.4 85 249.4 85 255.5 61.9 257.6 64 266.7 60.7 271.4 62.3 274.6 66.6 276.7 68.7 278.8 68.8 283.2 67.2 285 68 286.6 70.3 287.6 71.1 289.5 72.2 291.6 72.5 293.1 71.9 294.4 70.8 295.7 69.3 297.9 67.7 299.9 67.5 301.8 68 312.5 72.4 328.5 70.9 331.8 70 333.7 70.9 336.5 73.7 338.1 73.7 341.5 71.1 344.4 70.1 347.2 70.1 350.2 70.6 352.5 70 357.5 67 369.3 72.2 370.8 74.2 372.6 77.1 375 84.2 375 87.1 374 90.2 373.1 92.1 372.4 93.8 372.2 95.2 372.7 98 373.9 99.9 400.4 128.4 402.8 129.4 406.2 127.8 408 127.6 409.2 129 409.8 130.7 410.3 135.5 410.3 139.2 410.3 141.4 411.7 144.4 418.5 150.6 421.8 152.2 424.5 152.8 430.4 152.5 429.2 159 428.4 160.6 426.6 162.2 424.7 162.7 417.9 161.9 415.5 162.6 414.8 163.9 415.5 165.5 418.2 168.1 418.2 169.7 416.6 171.3 413.9 173.2 412.2 175.4 411.3 178.4 411.3 180.4 411.4 181.2 411.7 181.5 412.9 181.8 415.1 181.7 416.1 181.8 416.6 182.3 417.1 183.3 417.9 185.6 419.4 187.2 420.8 188.5 421.6 190.4 421.9 192.3 422.1 194.1 422.9 199.1 423.1 202.4 420.7 209.3 420.7 213.1 421.1 215.5 422.6 216.8 424.5 216.8 428.4 215.8 429.6 215.8 431 216.6 432.1 219.2" fill="#7a94c1" stroke="#fff" stroke-linecap="round" stroke-linejoin="round"/>
      </g>
    </g>
  </g>
</svg>