<?xml version="1.0" encoding="UTF-8"?>
<svg xmlns="http://www.w3.org/2000/svg" baseProfile="tiny" version="1.2" viewBox="0 0 570.7 174.6">
  <!-- Generator: Adobe Illustrator 28.6.0, SVG Export Plug-In . SVG Version: 1.2.0 Build 709)  -->
  <g>
    <g id="Layer_1">
      <g>
        <g>
          <g>
            <path d="M135.1,74.5h14.4v44.1h-14.4v-44.1ZM137.2,69.8h-10.9l9.5-12.6h12.9l9.5,12.6h-10.9l-5.1-6.8-5.1,6.8Z" fill="#f9f9f9"/>
            <rect x="156.6" y="58" width="14.5" height="60.7" fill="#f9f9f9"/>
            <path d="M189.3,92.1h18c-.3-4.9-3.8-9-8.6-9s-8.5,3.7-9.4,9h0ZM189.3,100.1c.3,6,3.7,10,9.9,10s6.9-1.6,8.2-4.8h13.5c-2.6,10.2-12.1,14.6-21.9,14.6-14.4,0-24.1-8.7-24.1-23.5s10.8-23.2,23.8-23.2,23.7,11.9,23,26.9h-32.4Z" fill="#f9f9f9"/>
            <path d="M240.7,114.4c7.7,0,10.6-6.6,10.6-13.1s-3.1-13.1-10.9-13.1-10.4,6.6-10.4,13.4,3.4,12.8,10.7,12.8M256.8,118.6h-5.7v-4.7h-.1c-1.9,3.8-6.3,5.5-11,5.5-10.7,0-16-8.5-16-18.2s5.2-18,15.8-18,8.6,1.3,11.2,5.4h.1v-17.8h5.7v47.9Z" fill="#f9f9f9"/>
            <path d="M266.4,98h19.9c-.3-5.4-4.3-9.8-10-9.8s-9.5,4.5-9.9,9.8ZM291.8,107.7c-1.5,7.6-7,11.8-14.8,11.8-11.1,0-16.3-7.6-16.6-18.2,0-10.4,6.8-18,16.3-18s16,11.5,15.7,19.9h-25.9c-.2,6,3.2,11.4,10.8,11.4s8-2.3,9-6.8h5.6M291.8,107.7h0Z" fill="#f9f9f9"/>
            <polygon points="296 118.7 296 58 340.7 58 340.7 70.6 311.8 70.6 311.8 83 336.8 83 336.8 95.3 311.8 95.3 311.8 118.7 296 118.7" fill="#f9f9f9"/>
            <path d="M343.6,74.5h14v7.7h.2c2.1-5.6,7-8.6,13.3-8.6s2.3.1,3.4.4v13.2c-1.9-.5-3.6-.8-5.5-.8-7.1,0-10.9,4.9-10.9,10.5v21.9h-14.4M343.7,118.7v-44.1,44.1Z" fill="#f9f9f9"/>
            <path d="M393.2,111c6.9,0,9.2-3.9,8.8-13-2,1.3-5.8,1.5-8.9,2.4-3.2.7-6,2.1-6,5.6s2.8,5,6,5M374.5,88.1c.3-5.8,3-9.5,6.9-11.8,3.9-2.2,9-3.1,14-3.1,10.4,0,20.6,2.3,20.6,14.8v19.3c0,3.7,0,7.8,1.7,11.3h-14.5c-.5-1.4-.7-2.7-.8-4.2-3.7,3.9-9.3,5.4-14.5,5.4-8.4,0-15-4.2-15-13.4,0-14.4,15.7-13.3,25.7-15.3,2.5-.5,3.8-1.4,3.8-4.1s-4-4.6-6.9-4.6-6.5,1.8-7.2,5.5h-13.5Z" fill="#f9f9f9"/>
            <path d="M421.2,74.5h14v6h.2c2.6-4.5,8.6-7.3,13.8-7.3,14.7,0,15.9,10.7,15.9,17.1v28.3h-14.4v-21.4c0-6,.7-12.2-7.3-12.2s-7.8,4.6-7.8,9.4v24.1h-14.5M421.2,118.6v-44.1,44.1Z" fill="#f9f9f9"/>
            <path d="M499.3,90.7c-.1-3.7-3.4-6.4-7-6.4-8.1,0-9.4,6.9-9.4,13s2.5,11.6,8.6,11.6,7.6-2.9,8.2-7.6h14c-1.3,11.8-10.5,18.6-22.2,18.6s-23.1-9.1-23.1-22.6,8.9-24.1,23.1-24.1,20.8,5.8,21.8,17.4M513.3,90.7h-14,14Z" fill="#f9f9f9"/>
          </g>
          <path d="M529,92.1h17.9c-.2-4.9-3.7-9-8.6-9s-8.5,3.7-9.4,9ZM529,100.1c.3,6,3.7,10,9.9,10s6.9-1.6,8.2-4.8h13.5c-2.6,10.2-12.1,14.6-22,14.6-14.4,0-24.1-8.7-24.1-23.5s10.8-23.2,23.8-23.2,23.7,11.9,23,26.9h-32.4,0Z" fill="#f9f9f9"/>
        </g>
        <polygon points="66.6 70.4 78.8 40.9 80.6 72.8 110.1 60.6 88.8 84.4 118.4 96.6 86.4 98.4 98.7 127.9 74.8 106.7 62.6 136.2 60.8 104.3 31.3 116.5 52.6 92.7 23.1 80.4 55 78.6 42.8 49.1 66.6 70.4" fill="#f9f9f9"/>
      </g>
    </g>
  </g>
</svg>