<?xml version="1.0" encoding="UTF-8"?>
<svg xmlns="http://www.w3.org/2000/svg" baseProfile="tiny" version="1.2" viewBox="0 0 364.3 141.7">
  <!-- Generator: Adobe Illustrator 28.6.0, SVG Export Plug-In . SVG Version: 1.2.0 Build 709)  -->
  <g>
    <g id="Layer_1">
      <path d="M139.4,90.7v15.6l-30.7,17.7-30.7,17.7-30.7-17.7-18.1-10.4c18.4,1.3,45.3-4.2,76.7-16.1l-31.7,14.9c27.6-6.3,46.7-14.2,65.1-21.7Z" fill="#bec4cc" fill-rule="evenodd"/>
      <path d="M78,0l30.7,17.7,30.7,17.7v29.9c-7.8,4.1-16,8.2-24.4,12-7,3.8-12.5,5.5-18.4,7.8-33.1,13.2-65.5,20.8-80,12.2v-61.9l30.7-17.7L78,0Z" fill="#1d4ed8" fill-rule="evenodd"/>
      <path d="M140.7,75.4c10.2-4.9,14-9.8,15.6-23.7-1.7,0-3.4.1-5.2.2.6,11.4-2.1,14.9-10.7,20.2,0,1.1.2,2.3.3,3.4Z" fill="#1d4ed8" fill-rule="evenodd"/>
      <polygon points="140.8 79.8 166 67.3 163.8 64 141.5 76.1 140.8 79.8" fill="red" fill-rule="evenodd"/>
      <path d="M141.6,80.7c7.4.2,14.5,2.3,21.5,5.5l.9-3.2c-6.7-3.3-13.6-5-20.9-4.9l-1.5,2.6Z" fill="#ff8000" fill-rule="evenodd"/>
      <path d="M8.9,71.8c-20.7,60.5,74.1,28.4,135.7-5.3.8,5.4,2.2,11.6,3,17C49,132.7-26.6,132.3,8.9,71.8Z" fill="#58595b" fill-rule="evenodd"/>
      <path d="M150.5,54.1l-1.7-1.8-.5-11.6,11.7-.6-.3,12.6-2.7,2c-.2,3.4-.8,6.9-2.2,10.3l-6.5-1.4c1.2-3,1.9-6.2,2.1-9.4h0ZM149.2,52.1c.8-2.4,2.8-1.6,3.6,0-.2-3.6-.4-7.3-.6-10.9-.1,3.2.3,6.7.2,9.9-1.3-2-3.6-.1-3.2,1.1h0ZM153.3,43.5c-.2,0-.3.1-.3.3h0c0,.2.1.3.3.3h2c.2,0,.3-.1.3-.3h0c0-.2-.1-.3-.3-.3h-2ZM153.3,47.5c-.2,0-.3.1-.3.3h0c0,.2.1.3.3.3h2c.2,0,.3-.1.3-.3h0c0-.2-.1-.3-.3-.3h-2ZM159.5,52.4c0-1.8-1.8-2.7-2.9-1-.3-3.4-.2-6.9-.5-10.3,0,3.6,0,7.2.1,10.8,1.3-1,2.7-1,3.3.5Z" fill="#58595b" fill-rule="evenodd"/>
      <g>
        <path d="M24,66.9l11.6-30.4h8.7l11.4,30.4h-8.9l-8.5-25.8h3.1l-8.7,25.8h-8.7ZM31.5,61.7v-6.7h17v6.7h-17Z" fill="#fff"/>
        <path d="M56.3,66.9v-30.4h8.5v30.4h-8.5ZM63.3,66.9v-7.3h14.2v7.3h-14.2Z" fill="#fff"/>
        <path d="M78.6,66.9v-30.4h8.5v30.4h-8.5ZM85.6,66.9v-7.3h14.2v7.3h-14.2Z" fill="#fff"/>
        <path d="M115,67.5c-2.4,0-4.6-.4-6.6-1.2-2-.8-3.8-1.9-5.3-3.3-1.5-1.4-2.7-3.1-3.5-5-.8-1.9-1.2-4-1.2-6.3s.4-4.4,1.2-6.3c.8-1.9,2-3.6,3.4-5,1.5-1.4,3.2-2.5,5.2-3.3,2-.8,4.2-1.2,6.6-1.2s4.6.4,6.6,1.2c2,.8,3.8,1.9,5.2,3.3,1.5,1.4,2.6,3.1,3.4,5,.8,1.9,1.2,4,1.2,6.3s-.4,4.3-1.2,6.3-2,3.6-3.4,5c-1.5,1.4-3.2,2.5-5.2,3.3-2,.8-4.2,1.2-6.5,1.2ZM114.9,59.9c1.6,0,3-.3,4.1-1,1.2-.7,2.1-1.7,2.7-2.9.6-1.3.9-2.7.9-4.4s-.2-2.4-.5-3.4c-.4-1-.9-1.9-1.6-2.6s-1.5-1.3-2.5-1.7-2-.6-3.2-.6-3,.3-4.1,1c-1.2.7-2.1,1.6-2.7,2.9-.6,1.2-.9,2.7-.9,4.4s.2,2.4.5,3.5.9,1.9,1.6,2.6c.7.7,1.5,1.3,2.5,1.7,1,.4,2,.6,3.2.6Z" fill="#fff"/>
      </g>
      <g>
        <path d="M173.4,66.3v-27.6h18v6.6h-10.1v3.5h8.6v6.2h-8.6v4.6h10.6v6.6h-18.4ZM187.9,29.8l-4.6,6.2h-4.9l3.4-6.2h6.1Z" fill="#1d4ed8"/>
        <path d="M195.2,66.3v-29.1h7.5v29.1h-7.5Z" fill="#1d4ed8"/>
        <path d="M224.2,59.6v5.7c-2.1,1-4.5,1.4-7.3,1.4s-6.1-.9-8.1-2.6c-2-1.7-3.1-4.1-3.1-7s1-5.4,3-7.2c2-1.8,4.4-2.8,7.2-2.8s4.8.8,6.6,2.4c1.8,1.6,2.8,4,2.8,7.2s0,1.4-.1,1.9h-11.8c.7,1.8,2.2,2.7,4.5,2.7s4.1-.6,6.3-1.8ZM215.8,52.5c-1.4,0-2.2.8-2.6,2.3h5.2c-.3-1.5-1.2-2.3-2.6-2.3Z" fill="#1d4ed8"/>
        <path d="M227.3,57c0-2.9,1.1-5.3,3.3-7.1s4.9-2.7,8-2.7,3.8.4,5.3,1.1v6.5c-1.7-1-3.3-1.5-4.8-1.5s-2.3.3-3.1,1-1.2,1.6-1.2,2.6.4,2,1.2,2.6c.8.7,1.8,1,3.1,1,1.9,0,3.5-.5,5-1.6v6.5c-1.5.8-3.4,1.2-5.8,1.2s-6-.9-8-2.8c-2.1-1.8-3.1-4.2-3.1-7Z" fill="#1d4ed8"/>
        <path d="M250.8,64.8c-1.2-1.2-1.8-3.2-1.8-5.9v-5.4h-2.8v-5.9h2.8v-4.7l7.5-1.3v6h4.5v5.9h-4.5v4.8c0,1.5.6,2.3,1.9,2.3s1.6-.2,2.6-.6v5.8c-1.3.6-2.9.9-4.7.9s-4.2-.6-5.5-1.9Z" fill="#1d4ed8"/>
        <path d="M264.1,66.3v-18.8h7.4v2h0c1.4-1.6,3-2.4,5-2.4s.9,0,1.4.2v6.9c-.7-.2-1.4-.2-2.1-.2-1.7,0-3.1.5-4.2,1.6v10.7h-7.5Z" fill="#1d4ed8"/>
        <path d="M281.6,44.1c-.8-.8-1.2-1.7-1.2-2.8s.4-2,1.2-2.8c.8-.8,1.7-1.1,2.8-1.1s2,.4,2.8,1.1c.8.8,1.2,1.7,1.2,2.8s-.4,2-1.2,2.8c-.8.8-1.7,1.1-2.8,1.1s-2-.4-2.8-1.1ZM280.6,66.3v-18.8h7.5v18.8h-7.5Z" fill="#1d4ed8"/>
        <path d="M291.1,57c0-2.9,1.1-5.3,3.3-7.1,2.2-1.8,4.9-2.7,8-2.7s3.8.4,5.3,1.1v6.5c-1.7-1-3.3-1.5-4.8-1.5s-2.3.3-3.1,1c-.8.7-1.2,1.6-1.2,2.6s.4,2,1.2,2.6c.8.7,1.8,1,3.1,1,1.9,0,3.5-.5,5-1.6v6.5c-1.5.8-3.4,1.2-5.8,1.2s-6-.9-8-2.8c-2.1-1.8-3.1-4.2-3.1-7Z" fill="#1d4ed8"/>
        <path d="M312.5,44.1c-.8-.8-1.2-1.7-1.2-2.8s.4-2,1.2-2.8c.8-.8,1.7-1.1,2.8-1.1s2,.4,2.8,1.1c.8.8,1.2,1.7,1.2,2.8s-.4,2-1.2,2.8c-.8.8-1.7,1.1-2.8,1.1s-2-.4-2.8-1.1ZM311.5,66.3v-18.8h7.5v18.8h-7.5Z" fill="#1d4ed8"/>
        <path d="M340.5,59.6v5.7c-2.1,1-4.5,1.4-7.3,1.4s-6.1-.9-8.1-2.6c-2-1.7-3.1-4.1-3.1-7s1-5.4,3-7.2c2-1.8,4.4-2.8,7.2-2.8s4.8.8,6.6,2.4c1.8,1.6,2.8,4,2.8,7.2s0,1.4-.1,1.9h-11.8c.7,1.8,2.2,2.7,4.5,2.7s4.1-.6,6.3-1.8ZM332.2,52.5c-1.4,0-2.2.8-2.6,2.3h5.2c-.3-1.5-1.2-2.3-2.6-2.3Z" fill="#1d4ed8"/>
        <path d="M344.7,66.3v-18.8h7.4v1.4h0c1.7-1.2,3.5-1.9,5.5-1.9s3.6.6,4.8,1.8c1.2,1.2,1.8,3,1.8,5.6v11.8h-7.5v-10.6c0-.8-.2-1.4-.5-1.8-.4-.4-.8-.5-1.4-.5-.9,0-1.8.3-2.5,1v12h-7.5Z" fill="#1d4ed8"/>
      </g>
      <g>
        <path d="M172.4,132.4c-1.6-1.6-2.5-3.6-2.5-5.9s.8-4.3,2.5-5.9,3.6-2.5,6-2.5,4.3.8,6,2.5,2.5,3.6,2.5,5.9-.8,4.3-2.5,5.9-3.6,2.5-6,2.5-4.3-.8-6-2.5Z" fill="#1d4ed8"/>
        <path d="M195.5,134v-56.7h18.4c7.4,0,13.1,1,17.1,3,6.6,3.2,9.9,8.6,9.9,16s-2.8,11.7-8.5,15c-4.3,2.6-10.4,3.8-18.2,3.8h-2.6v19h-16.1ZM211.7,102.8h2.9c3.6,0,6-.3,7.3-1,1.9-1,2.9-2.7,2.9-5.2s-1-4.5-3.1-5.4c-1.4-.7-3.9-1-7.5-1h-2.4v12.7Z" fill="#1d4ed8"/>
        <path d="M247.1,134v-56.7h19.8c6.8,0,12.1.9,15.9,2.8,6.1,3,9.2,7.9,9.2,14.8s-3.5,12.4-10.4,15.3l15,23.8h-18.3l-12.6-21.5h-2.5v21.5h-16.1ZM263.3,101.4h4c3,0,5.1-.4,6.3-1.2,1.5-.9,2.3-2.4,2.3-4.5s-.9-3.8-2.7-4.7c-1.4-.6-3.7-.9-6.9-.9h-3v11.3Z" fill="#1d4ed8"/>
        <path d="M306.1,126.4c-5.8-5.6-8.8-12.6-8.8-20.8s2.9-15.1,8.8-20.8c5.9-5.6,13-8.5,21.5-8.5s15.7,2.8,21.5,8.5c5.8,5.6,8.8,12.6,8.8,20.8s-2.9,15.1-8.8,20.8c-5.9,5.6-13,8.5-21.5,8.5s-15.7-2.8-21.5-8.5ZM317.6,95.2c-2.7,2.8-4.1,6.3-4.1,10.5s1.4,7.6,4.1,10.5c2.7,2.8,6.1,4.3,10.1,4.3s7.3-1.4,10.1-4.3c2.7-2.8,4.1-6.3,4.1-10.5s-1.4-7.6-4.1-10.5c-2.7-2.8-6.1-4.3-10.1-4.3s-7.3,1.4-10.1,4.3Z" fill="#1d4ed8"/>
      </g>
    </g>
  </g>
</svg>