<?xml version="1.0" encoding="UTF-8"?>
<svg xmlns="http://www.w3.org/2000/svg" baseProfile="tiny" version="1.2" viewBox="0 0 512 512">
  <!-- Generator: Adobe Illustrator 28.6.0, SVG Export Plug-In . SVG Version: 1.2.0 Build 709)  -->
  <g>
    <g id="Layer_1">
      <g>
        <g>
          <path d="M249.6,217.8v-44.5c-21.1,2.6-37.4,18.8-37.4,38.5v6.1h37.4Z" fill="#26a9e0"/>
          <path d="M261.6,217.8h37.4v-6.1c0-19.6-16.3-35.8-37.4-38.5v44.5Z" fill="#26a9e0"/>
          <rect x="261.6" y="228.5" width="37.4" height="43.9" fill="#26a9e0"/>
          <rect x="212.2" y="228.5" width="37.4" height="43.9" fill="#26a9e0"/>
        </g>
        <g>
          <path d="M237.4,404.7"/>
          <path d="M237.4,404.7l-44.7-18.3c-20.1-8.2-33.9,5.1-42.1,25.2-8.2,20.1-7.7,39.3,12.4,47.5l44.7,18.3,29.7-72.7Z" fill="#58595b"/>
          <path d="M245.8,476.6c3.6,1.5,7.7,0,9.1-3.4,1.4-3.3-.5-7.3-4.1-8.8l-32.4-13.2-5,12.1,32.4,13.2Z" fill="#e1861b"/>
          <path d="M264,431.9l-32.4-13.2-5,12.1,32.4,13.2c3.6,1.5,7.7,0,9.1-3.4,1.4-3.3-.5-7.3-4.1-8.8Z" fill="#e1861b"/>
        </g>
      </g>
      <path d="M436.3,191.8h36.5c8.1,0,8.2-9.4,8.2-9.4v-9.6c0-8-3.6-12-6-13.7l-2.2-1.2h0l-65.1-36.6v-63.7c-.5-2.7-2.3-7.1-9-7.1h-55.4c-8.8,0-9.2,7.6-9.2,8.9v.2h0s0,21.4,0,21.4l-79.4-42.9L42.9,158.1c-1.6,1.1-5.8,4.4-6.5,10.6v14c.4,3.3,1.9,7.9,7.4,8.1h36.7v152.7c0,.4-.1,7.8,0,7.8h.1c1.6,29.3,26.9,54.9,66.3,71.6.9-3.7,2.1-7.5,3.7-11.3,1.7-4,3.5-7.8,5.7-11.2-32.2-13.6-51.1-33.1-51.2-51.8v-182.4h-25.8l175.5-100.3,103.8,56.1v-47.1s24.5,0,24.5,0v60.7l56.3,31.7h-27.7v183.9c-1.7,17.4-19.2,35.2-48.4,48.1,0,0-10.1,5.1-4.4,15.8,4.8,9,13.3,6.6,14.6,6.2,38.7-17.3,62.9-43.3,62.9-72.9h-.2v-156.6Z" fill="#404041"/>
    </g>
  </g>
</svg>