<?xml version="1.0" encoding="UTF-8"?>
<svg xmlns="http://www.w3.org/2000/svg" baseProfile="tiny" version="1.2" viewBox="0 0 512 512">
  <!-- Generator: Adobe Illustrator 28.6.0, SVG Export Plug-In . SVG Version: 1.2.0 Build 709)  -->
  <g>
    <g id="Layer_1">
      <g>
        <path d="M302.3,144c-6.7,0-12.2,5.5-12.2,12.2v9.1h24.4v-9.1c0-6.7-5.5-12.2-12.2-12.2h0Z" fill="#1d4ed8"/>
        <path d="M197.5,156.2v9.1h24.4v-9.1c0-6.7-5.5-12.2-12.2-12.2s-12.2,5.5-12.2,12.2Z" fill="#1d4ed8"/>
        <path d="M256,37c-121.1,0-218.9,97.5-219.3,218.6-.3,116.3,89.9,211.6,204.1,219.4,0,0,.1,0,.3,0,17.7.3,32.2-14,32.2-31.7v-76.5c40.3-8,70.8-43.6,70.8-86.3v-39h12.4c2.9,0,5.3-2.4,5.3-5.3v-17.8c0-2.9-2.4-5.3-5.3-5.3h-41.9v-43.2h-24.4v43.2h-68.3v-43.2h-24.4v43.2h-41.9c-2.9,0-5.3,2.4-5.3,5.3v17.8c0,2.9,2.4,5.3,5.3,5.3h12.4v39c0,42.7,30.4,78.3,70.8,86.3v66.8c0,4.5-3.9,7.9-8.4,7.3-90.7-12.5-160.6-90.3-160.6-184.5,0-102.8,84.9-187.1,187.7-186.3,102.2.8,184.9,83.9,184.9,186.3s-59.5,159.9-140,180.5v33.9c98.9-21.3,173-109.1,173-214.3S377.1,37,256,37ZM208.1,274.4h95.8c1.9,0,3.5,1.6,3.5,3.5s-1.6,3.5-3.5,3.5h-95.8c-1.9,0-3.5-1.6-3.5-3.5s1.6-3.5,3.5-3.5ZM208.1,300.8c-1.9,0-3.5-1.6-3.5-3.5s1.6-3.5,3.5-3.5h95.8c1.9,0,3.5,1.6,3.5,3.5s-1.6,3.5-3.5,3.5h-95.8Z" fill="#1d4ed8"/>
      </g>
    </g>
  </g>
</svg>