<?xml version="1.0" encoding="UTF-8"?>
<svg xmlns="http://www.w3.org/2000/svg" baseProfile="tiny" version="1.2" viewBox="0 0 407.8 104.6">
  <!-- Generator: Adobe Illustrator 28.6.0, SVG Export Plug-In . SVG Version: 1.2.0 Build 709)  -->
  <g>
    <g id="Layer_1">
      <g>
        <path d="M103.9,55.7c7.5-3.6,10.3-7.2,11.5-17.5-1.3,0-2.5,0-3.8.1.4,8.4-1.6,11-7.9,14.9,0,.8.1,1.7.2,2.5Z" fill="#1d4ed8" fill-rule="evenodd"/>
        <polygon points="104 58.9 122.6 49.7 120.9 47.3 104.5 56.2 104 58.9" fill="red" fill-rule="evenodd"/>
        <path d="M104.6,59.5c5.5.1,10.7,1.7,15.9,4l.7-2.4c-4.9-2.4-10.1-3.7-15.4-3.6l-1.1,1.9Z" fill="#ff8000" fill-rule="evenodd"/>
        <path d="M111.1,40l-1.2-1.3-.4-8.6,8.6-.5-.2,9.3-2,1.5c-.1,2.5-.6,5.1-1.6,7.6l-4.8-1.1c.9-2.2,1.4-4.5,1.6-7h0ZM110.2,38.5c.6-1.8,2-1.2,2.6,0-.2-2.7-.3-5.4-.5-8.1,0,2.4.3,4.9.2,7.3-.9-1.5-2.7,0-2.3.8h0ZM113.2,32.1c-.1,0-.2.1-.2.2h0c0,.1.1.2.2.2h1.5c.1,0,.2-.1.2-.2h0c0-.1-.1-.2-.2-.2h-1.5ZM113.2,35.1c-.1,0-.2.1-.2.2h0c0,.1.1.2.2.2h1.5c.1,0,.2-.1.2-.2h0c0-.1-.1-.2-.2-.2h-1.5ZM117.8,38.7c0-1.4-1.3-2-2.1-.7-.2-2.5-.2-5.1-.4-7.6,0,2.7,0,5.3.1,8,.9-.7,2-.7,2.4.4Z" fill="#58595b" fill-rule="evenodd"/>
        <g>
          <path d="M102.9,66.9v11.5l-22.7,13.1-22.7,13.1-22.7-13.1-13.3-7.7c13.6,1,33.4-3.1,56.6-11.9l-23.4,11c20.4-4.6,34.4-10.5,48.1-16Z" fill="#bec4cc" fill-rule="evenodd"/>
          <path d="M57.6,0l22.7,13.1,22.7,13.1v22.1c-5.7,3-11.8,6-18,8.8-5.2,2.8-9.2,4-13.6,5.8-24.5,9.7-48.3,15.3-59,9V26.2l22.7-13.1L57.6,0Z" fill="#1d4ed8" fill-rule="evenodd"/>
          <path d="M6.6,53c-15.3,44.7,54.7,21,100.2-3.9.6,4,1.6,8.6,2.2,12.5C36.2,98-19.7,97.7,6.6,53Z" fill="#58595b" fill-rule="evenodd"/>
          <g>
            <path d="M17.7,49.4l8.5-22.5h6.4l8.5,22.5h-6.6l-6.3-19.1h2.3l-6.4,19.1h-6.4ZM23.2,45.6v-4.9h12.6v4.9h-12.6Z" fill="#fff"/>
            <path d="M41.6,49.4v-22.5h6.3v22.5h-6.3ZM46.7,49.4v-5.4h10.5v5.4h-10.5Z" fill="#fff"/>
            <path d="M58.1,49.4v-22.5h6.3v22.5h-6.3ZM63.2,49.4v-5.4h10.5v5.4h-10.5Z" fill="#fff"/>
            <path d="M84.9,49.8c-1.8,0-3.4-.3-4.9-.9-1.5-.6-2.8-1.4-3.9-2.5-1.1-1.1-2-2.3-2.6-3.7-.6-1.4-.9-3-.9-4.6s.3-3.2.9-4.6c.6-1.4,1.4-2.6,2.5-3.7,1.1-1.1,2.4-1.9,3.9-2.4,1.5-.6,3.1-.9,4.9-.9s3.4.3,4.9.9c1.5.6,2.8,1.4,3.9,2.4,1.1,1.1,1.9,2.3,2.5,3.7.6,1.4.9,3,.9,4.7s-.3,3.2-.9,4.6-1.4,2.7-2.5,3.7c-1.1,1.1-2.4,1.9-3.8,2.5-1.5.6-3.1.9-4.8.9ZM84.8,44.3c1.2,0,2.2-.3,3.1-.8.9-.5,1.5-1.2,2-2.1.5-.9.7-2,.7-3.2s-.1-1.8-.4-2.5c-.3-.7-.6-1.4-1.2-1.9s-1.1-.9-1.8-1.2-1.5-.4-2.4-.4-2.2.2-3.1.7c-.9.5-1.5,1.2-2,2.1-.5.9-.7,2-.7,3.2s.1,1.8.4,2.6.6,1.4,1.2,1.9c.5.5,1.1.9,1.8,1.2.7.3,1.5.4,2.4.4Z" fill="#fff"/>
          </g>
        </g>
      </g>
      <g>
        <path d="M142.4,32.9V14.1h12.2v4.5h-6.9v2.4h5.8v4.2h-5.8v3.1h7.2v4.5h-12.5ZM152.3,8.1l-3.1,4.2h-3.3l2.3-4.2h4.1Z" fill="#1d4ed8"/>
        <path d="M157.2,32.9V13.1h5.1v19.7h-5.1Z" fill="#1d4ed8"/>
        <path d="M176.9,28.3v3.9c-1.4.7-3.1,1-5,1s-4.1-.6-5.5-1.8c-1.4-1.2-2.1-2.8-2.1-4.8s.7-3.6,2-4.9c1.4-1.2,3-1.9,4.9-1.9s3.2.6,4.5,1.7c1.2,1.1,1.9,2.7,1.9,4.9s0,.9,0,1.3h-8c.4,1.2,1.5,1.8,3.1,1.8s2.8-.4,4.3-1.2ZM171.2,23.5c-.9,0-1.5.5-1.8,1.6h3.5c-.2-1-.8-1.6-1.8-1.6Z" fill="#1d4ed8"/>
        <path d="M179,26.5c0-2,.8-3.6,2.3-4.8s3.3-1.9,5.4-1.9,2.6.2,3.6.7v4.4c-1.2-.7-2.2-1-3.2-1s-1.6.2-2.1.7-.8,1.1-.8,1.8.3,1.3.8,1.8c.5.4,1.3.7,2.1.7,1.3,0,2.4-.4,3.4-1.1v4.4c-1,.6-2.3.8-3.9.8s-4-.6-5.5-1.9c-1.4-1.2-2.1-2.8-2.1-4.7Z" fill="#1d4ed8"/>
        <path d="M194.9,31.8c-.8-.8-1.2-2.2-1.2-4v-3.6h-1.9v-4h1.9v-3.2l5.1-.9v4.1h3.1v4h-3.1v3.3c0,1.1.4,1.6,1.3,1.6s1.1-.1,1.8-.4v3.9c-.9.4-2,.6-3.2.6s-2.9-.4-3.7-1.3Z" fill="#1d4ed8"/>
        <path d="M204,32.9v-12.7h5v1.4h0c.9-1.1,2.1-1.6,3.4-1.6s.6,0,.9.1v4.7c-.5-.1-.9-.2-1.4-.2-1.2,0-2.1.4-2.9,1.1v7.2h-5.1Z" fill="#1d4ed8"/>
        <path d="M215.8,17.8c-.5-.5-.8-1.1-.8-1.9s.3-1.4.8-1.9c.5-.5,1.2-.8,1.9-.8s1.4.3,1.9.8c.5.5.8,1.1.8,1.9s-.3,1.4-.8,1.9c-.5.5-1.2.8-1.9.8s-1.4-.3-1.9-.8ZM215.2,32.9v-12.7h5.1v12.7h-5.1Z" fill="#1d4ed8"/>
        <path d="M222.3,26.5c0-2,.8-3.6,2.3-4.8,1.5-1.2,3.3-1.9,5.4-1.9s2.6.2,3.6.7v4.4c-1.2-.7-2.2-1-3.2-1s-1.6.2-2.1.7c-.5.5-.8,1.1-.8,1.8s.3,1.3.8,1.8c.5.4,1.3.7,2.1.7,1.3,0,2.4-.4,3.4-1.1v4.4c-1,.6-2.3.8-3.9.8s-4-.6-5.5-1.9c-1.4-1.2-2.1-2.8-2.1-4.7Z" fill="#1d4ed8"/>
        <path d="M236.8,17.8c-.5-.5-.8-1.1-.8-1.9s.3-1.4.8-1.9c.5-.5,1.2-.8,1.9-.8s1.4.3,1.9.8c.5.5.8,1.1.8,1.9s-.3,1.4-.8,1.9c-.5.5-1.2.8-1.9.8s-1.4-.3-1.9-.8ZM236.1,32.9v-12.7h5.1v12.7h-5.1Z" fill="#1d4ed8"/>
        <path d="M255.8,28.3v3.9c-1.4.7-3.1,1-5,1s-4.1-.6-5.5-1.8c-1.4-1.2-2.1-2.8-2.1-4.8s.7-3.6,2-4.9c1.4-1.2,3-1.9,4.9-1.9s3.2.6,4.5,1.7c1.2,1.1,1.9,2.7,1.9,4.9s0,.9,0,1.3h-8c.4,1.2,1.5,1.8,3.1,1.8s2.8-.4,4.3-1.2ZM250.1,23.5c-.9,0-1.5.5-1.8,1.6h3.5c-.2-1-.8-1.6-1.8-1.6Z" fill="#1d4ed8"/>
        <path d="M258.6,32.9v-12.7h5v1h0c1.2-.8,2.4-1.3,3.7-1.3s2.4.4,3.3,1.2c.8.8,1.2,2.1,1.2,3.8v8h-5.1v-7.2c0-.6-.1-1-.4-1.2-.2-.2-.6-.4-1-.4-.6,0-1.2.2-1.7.7v8.1h-5.1Z" fill="#1d4ed8"/>
      </g>
      <g>
        <path d="M124.1,87.4c-1.3-1.3-2-2.9-2-4.7s.7-3.4,2-4.7,2.9-2,4.8-2,3.5.7,4.8,2,2,2.9,2,4.7-.7,3.4-2,4.7-2.9,2-4.8,2-3.5-.7-4.8-2Z" fill="#1d4ed8"/>
        <path d="M142.6,88.7v-45.2h14.7c5.9,0,10.5.8,13.6,2.4,5.2,2.6,7.9,6.8,7.9,12.7s-2.2,9.3-6.7,11.9c-3.5,2-8.3,3.1-14.5,3.1h-2.1v15.1h-12.9ZM155.5,63.8h2.3c2.8,0,4.8-.3,5.8-.8,1.5-.8,2.3-2.2,2.3-4.2s-.8-3.6-2.5-4.3c-1.1-.5-3.1-.8-6-.8h-1.9v10.1Z" fill="#1d4ed8"/>
        <path d="M183.8,88.7v-45.2h15.8c5.5,0,9.7.7,12.7,2.2,4.9,2.4,7.3,6.3,7.3,11.8s-2.8,9.9-8.3,12.2l12,19h-14.6l-10.1-17.2h-2v17.2h-12.9ZM196.6,62.7h3.2c2.4,0,4.1-.3,5.1-.9,1.2-.7,1.8-1.9,1.8-3.6s-.7-3-2.2-3.7c-1.1-.5-2.9-.7-5.5-.7h-2.4v9Z" fill="#1d4ed8"/>
        <path d="M230.8,82.6c-4.7-4.5-7-10-7-16.6s2.3-12.1,7-16.6c4.7-4.5,10.4-6.7,17.2-6.7s12.5,2.2,17.2,6.7c4.7,4.5,7,10,7,16.6s-2.3,12.1-7,16.6c-4.7,4.5-10.4,6.7-17.2,6.7s-12.5-2.2-17.2-6.7ZM240,57.7c-2.2,2.3-3.3,5-3.3,8.3s1.1,6.1,3.3,8.3c2.2,2.3,4.9,3.4,8,3.4s5.8-1.1,8-3.4c2.2-2.3,3.3-5,3.3-8.3s-1.1-6.1-3.3-8.3c-2.2-2.3-4.9-3.4-8-3.4s-5.8,1.1-8,3.4Z" fill="#1d4ed8"/>
      </g>
      <g>
        <polygon points="310.9 26.5 310.9 21 306.5 26.5 310.9 26.5" fill="#1d4ed8"/>
        <path d="M284.4,10c-1.8,0-3.3,1.5-3.3,3.3v23.5c0,1.8,1.5,3.3,3.3,3.3h35.1l9.8-30.1h-44.9ZM301.4,35.5h-15.9v-4.3c1.6-2.7,2.4-3.5,4.3-5,2.1-1.9,5.2-3.1,5.2-4.9s-1.1-1.9-2.5-1.9-2.7,1.3-3.6,2.2l-3.2-3.4c2.1-2.4,4.7-3.7,7.7-3.7s7,2.5,7,6.5-1.6,4.6-4.7,6.6c-1.4.9-3.7,2.8-4.4,4h5.2v-2.4h5v6.3ZM318.6,35.5h-9.6v-3.9h1.9v-1.9h-8.5v-4.2l8.5-10.6h6.1v11.6h1.6v3.2h-1.6v1.9h1.6v3.9Z" fill="#1d4ed8"/>
        <path d="M352,10h-18l-9.8,30.1h27.7c1.8,0,3.3-1.5,3.3-3.3V13.3c0-1.8-1.5-3.3-3.3-3.3ZM350.9,18.8l-7.9,16.7h-6.4l7.9-16.7h-4.8v1.9h-4.7v-5.8h16v3.9Z" fill="#1d4ed8"/>
      </g>
      <g id="Layer_1-2" data-name="Layer_1">
        <g>
          <path d="M292.4,44.3c-4.1,5.3-9.8,3.3-9.8,3.3v12.2c0,7.6,9.4,10.9,9.8,10.9s9.8-3.3,9.8-10.9v-12.2s-5.7,2-9.8-3.3Z" fill="#6ec24f"/>
          <polygon points="292 62 287.8 57.8 289.1 56.4 292 59.2 296.8 54.3 298.2 55.7 292 62" fill="#fff"/>
        </g>
        <path d="M365.5,47.9h-.1l-61.7,2v1.8l61.7-2h0c.7,0,1.3.6,1.3,1.3v8.9c0,.7-.6,1.3-1.3,1.3l-62.4,2c-.2.6-.5,1.2-.8,1.8l63.3-2c1.7,0,3-1.4,3-3.1v-8.9c0-1.7-1.4-3.1-3.1-3.1h0Z" fill="#6ec24f"/>
        <path d="M315.1,54.6c.5.4.8,1.1.8,1.9h-1.8c0-.3,0-.6-.3-.8s-.4-.3-.8-.3-.7.2-.9.4c-.2.3-.3.6-.3,1v.6c0,.4,0,.8.3,1s.5.4.8.3c.4,0,.6-.1.8-.3.2-.2.3-.5.3-.8h1.8c0,.8-.3,1.4-.8,1.8s-1.2.7-2.1.7c-1,0-1.8-.2-2.3-.7s-.8-1.3-.8-2.3.3-1.8.8-2.3c.5-.5,1.3-.8,2.3-.9.9,0,1.6.2,2.1.6h0Z" fill="#6ec24f"/>
        <path d="M316.9,54l5.2-.2v1.4h-3.3v.9h2.8c0,0,0,1.3,0,1.3h-2.8v1h3.3c0-.1,0,1.3,0,1.3l-5.2.2s0-6,0-6Z" fill="#6ec24f"/>
        <path d="M328.6,56.4c-.2.3-.5.5-.9.7l1.3,2.5h-2.2c0,0-1.1-2.1-1.1-2.1h-.7v2.2h-1.9c0,0,0-5.9,0-5.9h3.7c.4-.1.8,0,1.1,0s.5.4.7.6c.2.3.2.6.2.9s-.1.7-.3,1h0ZM326.7,55.2c-.1-.1-.2-.2-.4-.2h-1.3v1.1h1.3c.2,0,.3-.1.4-.2.1-.1.2-.2.2-.4s0-.3-.2-.4h0Z" fill="#6ec24f"/>
        <path d="M333.3,55v4.5h-1.9c0,0,0-4.4,0-4.4h-2c0,0,0-1.5,0-1.5l5.8-.2v1.5h-2c0,0,0,0,0,0Z" fill="#6ec24f"/>
        <path d="M336.2,59.3v-6h1.9c0,0,0,5.9,0,5.9h-1.9Z" fill="#6ec24f"/>
        <path d="M339.5,53.3l4.8-.2v1.4h-2.9v1.1h2.5c0,0,0,1.3,0,1.3h-2.5v2.2h-1.9c0,0,0-5.9,0-5.9h0Z" fill="#6ec24f"/>
        <path d="M345.4,59v-6h1.9c0,0,0,5.9,0,5.9h-1.9Z" fill="#6ec24f"/>
        <path d="M348.7,52.9l5.2-.2v1.4h-3.3v.9h2.8c0,0,0,1.3,0,1.3h-2.8v1h3.3c0-.1,0,1.3,0,1.3l-5.2.2s0-6,0-6Z" fill="#6ec24f"/>
        <path d="M350.4,52.1l.7-.8,2.2-.2-1.2.9-1.7.2h0Z" fill="#6ec24f"/>
      </g>
    </g>
  </g>
</svg>