<?xml version="1.0" encoding="UTF-8"?>
<svg xmlns="http://www.w3.org/2000/svg" baseProfile="tiny" version="1.2" xmlns:xlink="http://www.w3.org/1999/xlink" viewBox="0 0 512 512">
  <defs>
    <linearGradient id="New_Gradient_Swatch_1" data-name="New Gradient Swatch 1" x1="58.2" y1="229.8" x2="353.4" y2="229.8" gradientUnits="userSpaceOnUse">
      <stop offset="0" stop-color="#26a9e0"/>
      <stop offset="1" stop-color="#2b388f"/>
    </linearGradient>
  </defs>
  <!-- Generator: Adobe Illustrator 28.6.0, SVG Export Plug-In . SVG Version: 1.2.0 Build 709)  -->
  <g>
    <g id="Layer_1">
      <g>
        <path d="M243.8,288.5h-83.2l148.8-209.6h0l43.9-61.9-55,59.4c-12.9-2.6-26.3-3.9-40.1-3.9-110.5,0-200.1,87.3-200.1,194.9s45.8,143.6,112.4,175.2l73.2-154.1Z" fill="url(#New_Gradient_Swatch_1)"/>
        <path d="M322.2,82.6l-69.8,146.9h83.2l-154.6,217.8h0l-38.1,53.7,50.3-49.2c20.4,6.9,42.4,10.6,65.2,10.6,110.5,0,200.1-87.3,200.1-194.9s-57-158.8-136.2-184.8Z" fill="#ffc50a"/>
      </g>
    </g>
  </g>
</svg>