<?xml version="1.0" encoding="UTF-8"?>
<svg xmlns="http://www.w3.org/2000/svg" baseProfile="tiny" version="1.2" viewBox="0 0 512 512">
  <!-- Generator: Adobe Illustrator 28.6.0, SVG Export Plug-In . SVG Version: 1.2.0 Build 709)  -->
  <g>
    <g id="Layer_1">
      <path d="M423.8,315.1v46.5l-91.4,52.7-91.4,52.8-91.4-52.8-53.8-31.1c54.9,3.9,134.8-12.6,228.3-48l-94.3,44.4c82.2-18.7,138.9-42.2,193.9-64.6Z" fill="#f9f9f9" fill-rule="evenodd"/>
      <path d="M241.1,45.1l91.4,52.8,91.4,52.8v89c-23.2,12.2-47.6,24.3-72.6,35.6-20.8,11.2-37.2,16.2-54.8,23.4-98.6,39.3-195,61.8-238.1,36.4v-184.4l91.4-52.8,91.4-52.8Z" fill="#1d4ed8" fill-rule="evenodd"/>
      <path d="M427.7,269.7c30.4-14.5,41.6-29.1,46.3-70.7-5.1.2-10.2.4-15.4.5,1.7,33.8-6.4,44.3-31.7,60,.3,3.4.5,6.8.8,10.2Z" fill="#1d4ed8" fill-rule="evenodd"/>
      <polygon points="428 282.7 503 245.4 496.5 235.8 430.1 271.8 428 282.7" fill="red" fill-rule="evenodd"/>
      <path d="M430.5,285.2c22.1.5,43.2,6.8,63.9,16.3l2.7-9.7c-19.9-9.8-40.6-14.8-62.2-14.5l-4.4,7.8Z" fill="#ff8000" fill-rule="evenodd"/>
      <path d="M35.3,259c-61.7,180.3,220.8,84.7,404.3-15.6,2.4,16,6.7,34.5,9.1,50.5C154.5,440.2-70.7,439,35.3,259Z" fill="#58595b" fill-rule="evenodd"/>
      <path d="M456.8,206.3l-5-5.4-1.4-34.6,34.9-1.8-.9,37.4-7.9,5.9c-.5,10.1-2.5,20.7-6.5,30.8l-19.4-4.3c3.5-9,5.6-18.3,6.3-28h0ZM453,200.3c2.4-7.1,8.2-4.7,10.6-.1-.6-10.9-1.2-21.7-1.8-32.6-.4,9.6,1,19.9.7,29.5-3.8-5.9-10.8-.3-9.5,3.2h0ZM465.3,174.6c-.5,0-.9.4-.9.9h0c0,.5.4.9.9.9h5.9c.5,0,.9-.4.9-.9h0c0-.5-.4-.9-.9-.9h-5.9ZM465.3,186.5c-.5,0-.9.4-.9.9h0c0,.5.4.9.9.9h5.9c.5,0,.9-.4.9-.9h0c0-.5-.4-.9-.9-.9h-5.9ZM483.7,201c0-5.5-5.4-8-8.6-2.9-1-10.1-.6-20.5-1.6-30.7.1,10.7.3,21.4.4,32.1,3.7-3,8.1-2.8,9.7,1.5Z" fill="#58595b" fill-rule="evenodd"/>
      <g>
        <path d="M80,244.2l34.5-90.6h26l34.1,90.6h-26.5l-25.3-77h9.2l-26,77h-26ZM102.4,228.9v-19.8h50.6v19.8h-50.6Z" fill="#fff"/>
        <path d="M176.5,244.2v-90.6h25.4v90.6h-25.4ZM197.2,244.2v-21.6h42.4v21.6h-42.4Z" fill="#fff"/>
        <path d="M242.9,244.2v-90.6h25.4v90.6h-25.4ZM263.6,244.2v-21.6h42.4v21.6h-42.4Z" fill="#fff"/>
        <path d="M351,245.9c-7.1,0-13.7-1.2-19.7-3.6-6-2.4-11.2-5.7-15.6-9.9-4.5-4.2-7.9-9.2-10.4-15-2.5-5.8-3.7-12-3.7-18.7s1.2-13,3.6-18.7c2.4-5.7,5.8-10.6,10.2-14.9,4.4-4.2,9.6-7.5,15.6-9.9,6-2.3,12.5-3.5,19.7-3.5s13.7,1.2,19.7,3.5c6,2.3,11.2,5.6,15.6,9.9,4.4,4.2,7.8,9.2,10.2,14.9,2.4,5.7,3.6,12,3.6,18.8s-1.2,12.9-3.6,18.6-5.8,10.7-10.2,15c-4.4,4.3-9.6,7.6-15.5,9.9-5.9,2.3-12.4,3.5-19.5,3.5ZM350.8,223.6c4.7,0,8.9-1,12.3-3.1,3.5-2,6.1-4.9,8-8.7,1.9-3.7,2.8-8.1,2.8-13.1s-.5-7.1-1.6-10.1c-1.1-3-2.6-5.6-4.6-7.8s-4.5-3.8-7.3-5-6-1.7-9.6-1.7-8.9,1-12.3,3c-3.5,2-6.1,4.8-8,8.5-1.9,3.7-2.8,8-2.8,13s.5,7.3,1.6,10.3,2.6,5.7,4.6,7.8c2,2.2,4.5,3.8,7.3,5,2.8,1.1,6,1.7,9.6,1.7Z" fill="#fff"/>
      </g>
    </g>
  </g>
</svg>