<?xml version="1.0" encoding="UTF-8"?>
<svg xmlns="http://www.w3.org/2000/svg" baseProfile="tiny" version="1.2" viewBox="0 0 512 512">
  <!-- Generator: Adobe Illustrator 28.6.0, SVG Export Plug-In . SVG Version: 1.2.0 Build 709)  -->
  <g>
    <g id="Layer_1">
      <path d="M386.4,312.2v41.9l-82.2,47.5-82.3,47.5-82.3-47.5-48.5-28c49.4,3.5,121.4-11.3,205.5-43.2l-84.9,40c74-16.8,125.1-38,174.6-58.2Z" fill="#6d6f71" fill-rule="evenodd"/>
      <path d="M221.9,69.1l82.3,47.5,82.2,47.5v80.1c-20.8,11-42.9,21.9-65.4,32.1-18.8,10.1-33.5,14.6-49.3,21-88.8,35.4-175.6,55.6-214.4,32.7v-166l82.3-47.5,82.3-47.5Z" fill="#1d4ed8" fill-rule="evenodd"/>
      <path d="M321.8,307.9h-49.3l-14.3-44.7h-71.5l-14.2,44.7h-49.1l73.2-201.1h53.7l71.5,201.1h0ZM247.8,228.4l-21.6-67.6c-1.6-5.1-2.7-11.1-3.4-18.1h-1.1c-.5,5.9-1.6,11.7-3.5,17.5l-21.9,68.2h51.4Z" fill="#fff"/>
      <path d="M390,271.3c27.4-13.1,37.4-26.2,41.7-63.7-4.6.2-9.2.3-13.8.5,1.5,30.5-5.7,39.9-28.6,54,.2,3.1.5,6.1.7,9.2Z" fill="#ff8000" fill-rule="evenodd"/>
      <polygon points="390.2 283 457.7 249.4 451.8 240.8 392.1 273.2 390.2 283" fill="#ff8000" fill-rule="evenodd"/>
      <path d="M392.4,285.3c19.9.4,38.9,6.1,57.6,14.7l2.5-8.7c-17.9-8.8-36.6-13.3-56-13l-4,7.1Z" fill="#ff8000" fill-rule="evenodd"/>
      <path d="M36.6,261.6c-55.6,162.3,198.8,76.3,363.9-14.1,2.2,14.4,6,31.1,8.2,45.5C144,424.8-58.8,423.7,36.6,261.6Z" fill="#58595b" fill-rule="evenodd"/>
      <path d="M416.2,214.2l-4.5-4.8-1.3-31.1,31.4-1.6-.8,33.7-7.1,5.3c-.5,9.1-2.3,18.6-5.9,27.7l-17.5-3.9c3.2-8.1,5.1-16.5,5.7-25.2h0ZM412.7,208.8c2.1-6.4,7.4-4.2,9.6-.1-.5-9.8-1.1-19.6-1.6-29.4-.4,8.7.9,17.9.6,26.6-3.4-5.3-9.8-.3-8.5,2.9h0ZM423.8,185.7c-.5,0-.8.4-.8.8h0c0,.5.4.8.8.8h5.3c.5,0,.8-.4.8-.8h0c0-.5-.4-.8-.8-.8h-5.3ZM423.8,196.4c-.5,0-.8.4-.8.8h0c0,.5.4.8.8.8h5.3c.5,0,.8-.4.8-.8h0c0-.5-.4-.8-.8-.8h-5.3ZM440.3,209.5c0-4.9-4.9-7.2-7.7-2.7-.9-9.1-.5-18.5-1.4-27.6.1,9.6.3,19.3.4,28.9,3.4-2.7,7.3-2.6,8.7,1.4Z" fill="#58595b" fill-rule="evenodd"/>
      <path d="M446.7,239.6l1.4-6.1,14.1-9.4,2.5,5.7,3.8-1.8c.4-8.3,7.3-14.9,15.7-14.9s15.7,7,15.7,15.7-7,15.7-15.7,15.7-5.2-.7-7.4-1.9l-5.2,2.9,2.4,5.5-10.1,4.7-8.2-.2-26.5,11.7-5.6-16,23.2-11.7h0ZM484.1,222.2c-3.6,0-6.6,2.9-6.6,6.6s2.9,6.6,6.6,6.6,6.6-2.9,6.6-6.6-2.9-6.6-6.6-6.6Z" fill="#58595b" fill-rule="evenodd"/>
      <polygon points="419.7 292.2 424 277.1 445.5 283.1 456.1 279.9 453.9 295.1 458.7 279.1 487.8 286.5 475.5 323.1 450.7 312.8 441.9 300 419.7 292.2" fill="#58595b" fill-rule="evenodd"/>
    </g>
  </g>
</svg>