<?xml version="1.0" encoding="UTF-8"?>
<svg xmlns="http://www.w3.org/2000/svg" baseProfile="tiny" version="1.2" viewBox="0 0 512 512">
  <!-- Generator: Adobe Illustrator 28.6.0, SVG Export Plug-In . SVG Version: 1.2.0 Build 709)  -->
  <g>
    <g id="Layer_1">
      <path d="M323.2,52c-11.1-2.8-23.5-5-36.4-2.8-18.7,3.1-30.7,16.7-34.5,21.5l-149.9,239.1c-3.7,6-4.1,12.9-1.1,18.5,3.1,5.6,9.1,8.9,16.2,8.9h98.5l-28.4,96.4c-2,6.9,1.9,14.2,8.8,16.2,1.2.4,2.5.5,3.7.5,5.6,0,10.8-3.7,12.5-9.4l30.9-104.8c1.8-6.2.8-12.5-2.9-17.4-3.7-4.9-9.4-7.7-15.9-7.7h-92.4s114-181.8,136.5-217.6c5.1-8.1,10.8-14.2,20.2-17.4,8.2-2.7,17.2-1.8,25.4.5,15.7,4.5,30.9,10.8,45.2,19,29.7,17,55.9,41.7,76.1,69.3,20.3,27.8,35,62.7,33.5,105.2-.6,18.4-2.7,143.4-139,205.7-1.6.7-4.9,3.9-3.5,6.3,1.1,2,2.5,3.6,4.6,3.6s2.9-.2,4.4-.8c90.6-32.2,151.4-118.4,151.4-214.6s-67.2-190.4-164.1-218.5Z"/>
      <path d="M402,221.5c-3-5.7-9.1-9-16.2-9h-115.6l45-112.6c2.7-6.7-.6-14.3-7.3-17-6.7-2.7-14.3.6-17,7.3l-49,122.4c-2.5,6.2-1.9,12.7,1.6,17.9,3.5,5.2,9.3,8.1,16,8.1h110.3s-140.3,208.7-140.4,208.8c-4.6,6.6-9.6,11.7-15.5,13.6-13.3,4.2-27.6-2.3-39.3-7.8-69.7-32.3-116.6-102.6-116.6-182.7s32.8-128.8,87.9-166.5c.2-.1.3-.3.5-.4,10.1,7.6,24.2,9.1,36,2.6l23.7-13-5.6-10.2,25.1-13.8c3-1.6,4.1-5.4,2.4-8.4-1.6-3-5.4-4.1-8.4-2.4l-25.1,13.8-9.1-16.5,25.1-13.8c3-1.7,4.1-5.4,2.4-8.4-1.6-3-5.4-4.1-8.4-2.4l-25.1,13.8-5.6-10.1-23.7,13c-12.3,6.8-18.6,20.2-16.9,33.4-.8.3-1.5.7-2.3,1.2-62.1,42.5-99.2,112.8-99.2,188s64.4,186.1,156.9,216.2c10.1,3.3,20.5,4.4,30.8,1.8,11.1-2.7,21.4-10.5,27.3-20.3l153.4-228.2c4-5.9,4.6-12.9,1.6-18.5Z"/>
      <path d="M259.6,247.3c-9.6,0-18.1-4.3-23.2-11.9-5.1-7.6-6-17.1-2.5-26l47.2-117.9c-1.6,1.8-3.2,4-4.9,6.7-18.7,29.9-101.4,161.7-128.1,204.2h76.7c9.2,0,17.5,4.1,22.8,11.2,5.3,7.1,6.9,16.2,4.3,25.1l-30.9,104.8c-.2.5-.3,1.1-.5,1.6.6-.8,1.3-1.7,1.9-2.6h0c2.7-4,100.5-149.5,131.2-195.1h-94Z" fill="#f3c935"/>
    </g>
  </g>
</svg>