<?xml version="1.0" encoding="UTF-8"?>
<svg xmlns="http://www.w3.org/2000/svg" baseProfile="tiny" version="1.2" viewBox="0 0 317.4 105.3">
  <!-- Generator: Adobe Illustrator 28.6.0, SVG Export Plug-In . SVG Version: 1.2.0 Build 709)  -->
  <g>
    <g id="Layer_1">
      <g>
        <path d="M79.4,42.6c5.8-2.7,7.9-5.5,8.8-13.4-1,0-1.9,0-2.9,0,.3,6.4-1.2,8.4-6,11.4,0,.6,0,1.3.1,1.9Z" fill="#1d4ed8" fill-rule="evenodd"/>
        <polygon points="79.5 45.1 93.7 38 92.5 36.2 79.9 43 79.5 45.1" fill="red" fill-rule="evenodd"/>
        <path d="M80,45.5c4.2,0,8.2,1.3,12.1,3.1l.5-1.8c-3.8-1.9-7.7-2.8-11.8-2.7l-.8,1.5Z" fill="#ff8000" fill-rule="evenodd"/>
        <path d="M85,30.6l-1-1-.3-6.6,6.6-.3-.2,7.1-1.5,1.1c-.1,1.9-.5,3.9-1.2,5.8l-3.7-.8c.7-1.7,1.1-3.5,1.2-5.3h0ZM84.2,29.4c.5-1.3,1.6-.9,2,0-.1-2.1-.2-4.1-.3-6.2,0,1.8.2,3.8.1,5.6-.7-1.1-2.1,0-1.8.6h0ZM86.6,24.6c0,0-.2,0-.2.2h0c0,0,0,.2.2.2h1.1c0,0,.2,0,.2-.2h0c0,0,0-.2-.2-.2h-1.1ZM86.6,26.8c0,0-.2,0-.2.2h0c0,0,0,.2.2.2h1.1c0,0,.2,0,.2-.2h0c0,0,0-.2-.2-.2h-1.1ZM90.1,29.6c0-1-1-1.5-1.6-.6-.2-1.9-.1-3.9-.3-5.8,0,2,0,4.1,0,6.1.7-.6,1.5-.5,1.8.3Z" fill="#58595b" fill-rule="evenodd"/>
        <g>
          <path d="M78.7,51.2v8.8l-17.3,10-17.3,10-17.3-10-10.2-5.9c10.4.7,25.6-2.4,43.3-9.1l-17.9,8.4c15.6-3.5,26.3-8,36.8-12.2Z" fill="#bec4cc" fill-rule="evenodd"/>
          <path d="M44.1,0l17.3,10,17.3,10v16.9c-4.4,2.3-9,4.6-13.8,6.8-3.9,2.1-7.1,3.1-10.4,4.4-18.7,7.4-37,11.7-45.1,6.9V20l17.3-10L44.1,0Z" fill="#1d4ed8" fill-rule="evenodd"/>
          <path d="M5,40.5c-11.7,34.2,41.9,16.1,76.6-3,.5,3,1.3,6.5,1.7,9.6C27.6,74.9-15,74.7,5,40.5Z" fill="#58595b" fill-rule="evenodd"/>
          <g>
            <path d="M13.5,37.7l6.5-17.2h4.9l6.5,17.2h-5l-4.8-14.6h1.7l-4.9,14.6h-4.9ZM17.8,34.8v-3.8h9.6v3.8h-9.6Z" fill="#fff"/>
            <path d="M31.8,37.7v-17.2h4.8v17.2h-4.8ZM35.7,37.7v-4.1h8v4.1h-8Z" fill="#fff"/>
            <path d="M44.4,37.7v-17.2h4.8v17.2h-4.8ZM48.3,37.7v-4.1h8v4.1h-8Z" fill="#fff"/>
            <path d="M64.9,38.1c-1.4,0-2.6-.2-3.7-.7-1.1-.4-2.1-1.1-3-1.9-.8-.8-1.5-1.8-2-2.8-.5-1.1-.7-2.3-.7-3.5s.2-2.5.7-3.5c.5-1.1,1.1-2,1.9-2.8.8-.8,1.8-1.4,3-1.9,1.1-.4,2.4-.7,3.7-.7s2.6.2,3.7.7c1.1.4,2.1,1.1,3,1.9.8.8,1.5,1.7,1.9,2.8.5,1.1.7,2.3.7,3.6s-.2,2.4-.7,3.5-1.1,2-1.9,2.8c-.8.8-1.8,1.4-2.9,1.9-1.1.4-2.4.7-3.7.7ZM64.8,33.8c.9,0,1.7-.2,2.3-.6.7-.4,1.2-.9,1.5-1.6.4-.7.5-1.5.5-2.5s-.1-1.3-.3-1.9c-.2-.6-.5-1.1-.9-1.5s-.8-.7-1.4-.9-1.1-.3-1.8-.3-1.7.2-2.3.6c-.7.4-1.2.9-1.5,1.6-.4.7-.5,1.5-.5,2.5s.1,1.4.3,2,.5,1.1.9,1.5c.4.4.8.7,1.4.9.5.2,1.1.3,1.8.3Z" fill="#fff"/>
          </g>
        </g>
      </g>
      <g>
        <path d="M104.6,48.9v-18.7h12.2v4.5h-6.9v2.4h5.8v4.2h-5.8v3.1h7.2v4.5h-12.5ZM114.4,24.1l-3.1,4.2h-3.3l2.3-4.2h4.1Z" fill="#1d4ed8"/>
        <path d="M119.4,48.9v-19.7h5.1v19.7h-5.1Z" fill="#1d4ed8"/>
        <path d="M139,44.3v3.9c-1.4.7-3.1,1-5,1s-4.1-.6-5.5-1.8c-1.4-1.2-2.1-2.8-2.1-4.8s.7-3.6,2-4.9c1.4-1.2,3-1.9,4.9-1.9s3.2.6,4.5,1.7c1.2,1.1,1.9,2.7,1.9,4.9s0,.9,0,1.3h-8c.4,1.2,1.5,1.8,3.1,1.8s2.8-.4,4.3-1.2ZM133.4,39.5c-.9,0-1.5.5-1.8,1.6h3.5c-.2-1-.8-1.6-1.8-1.6Z" fill="#1d4ed8"/>
        <path d="M141.1,42.5c0-2,.8-3.6,2.3-4.8s3.3-1.9,5.4-1.9,2.6.2,3.6.7v4.4c-1.2-.7-2.2-1-3.2-1s-1.6.2-2.1.7-.8,1.1-.8,1.8.3,1.3.8,1.8c.5.4,1.3.7,2.1.7,1.3,0,2.4-.4,3.4-1.1v4.4c-1,.6-2.3.8-3.9.8s-4-.6-5.5-1.9c-1.4-1.2-2.1-2.8-2.1-4.7Z" fill="#1d4ed8"/>
        <path d="M157.1,47.8c-.8-.8-1.2-2.2-1.2-4v-3.6h-1.9v-4h1.9v-3.2l5.1-.9v4.1h3.1v4h-3.1v3.3c0,1.1.4,1.6,1.3,1.6s1.1-.1,1.8-.4v3.9c-.9.4-2,.6-3.2.6s-2.9-.4-3.7-1.3Z" fill="#1d4ed8"/>
        <path d="M166.1,48.9v-12.7h5v1.4h0c.9-1.1,2.1-1.6,3.4-1.6s.6,0,.9.1v4.7c-.5-.1-.9-.2-1.4-.2-1.2,0-2.1.4-2.9,1.1v7.2h-5.1Z" fill="#1d4ed8"/>
        <path d="M178,33.8c-.5-.5-.8-1.1-.8-1.9s.3-1.4.8-1.9c.5-.5,1.2-.8,1.9-.8s1.4.3,1.9.8c.5.5.8,1.1.8,1.9s-.3,1.4-.8,1.9c-.5.5-1.2.8-1.9.8s-1.4-.3-1.9-.8ZM177.3,48.9v-12.7h5.1v12.7h-5.1Z" fill="#1d4ed8"/>
        <path d="M184.4,42.5c0-2,.8-3.6,2.3-4.8,1.5-1.2,3.3-1.9,5.4-1.9s2.6.2,3.6.7v4.4c-1.2-.7-2.2-1-3.2-1s-1.6.2-2.1.7c-.5.5-.8,1.1-.8,1.8s.3,1.3.8,1.8c.5.4,1.3.7,2.1.7,1.3,0,2.4-.4,3.4-1.1v4.4c-1,.6-2.3.8-3.9.8s-4-.6-5.5-1.9c-1.4-1.2-2.1-2.8-2.1-4.7Z" fill="#1d4ed8"/>
        <path d="M198.9,33.8c-.5-.5-.8-1.1-.8-1.9s.3-1.4.8-1.9c.5-.5,1.2-.8,1.9-.8s1.4.3,1.9.8c.5.5.8,1.1.8,1.9s-.3,1.4-.8,1.9c-.5.5-1.2.8-1.9.8s-1.4-.3-1.9-.8ZM198.3,48.9v-12.7h5.1v12.7h-5.1Z" fill="#1d4ed8"/>
        <path d="M217.9,44.3v3.9c-1.4.7-3.1,1-5,1s-4.1-.6-5.5-1.8c-1.4-1.2-2.1-2.8-2.1-4.8s.7-3.6,2-4.9c1.4-1.2,3-1.9,4.9-1.9s3.2.6,4.5,1.7c1.2,1.1,1.9,2.7,1.9,4.9s0,.9,0,1.3h-8c.4,1.2,1.5,1.8,3.1,1.8s2.8-.4,4.3-1.2ZM212.3,39.5c-.9,0-1.5.5-1.8,1.6h3.5c-.2-1-.8-1.6-1.8-1.6Z" fill="#1d4ed8"/>
        <path d="M220.8,48.9v-12.7h5v1h0c1.2-.8,2.4-1.3,3.7-1.3s2.4.4,3.3,1.2c.8.8,1.2,2.1,1.2,3.8v8h-5.1v-7.2c0-.6-.1-1-.4-1.2-.2-.2-.6-.4-1-.4-.6,0-1.2.2-1.7.7v8.1h-5.1Z" fill="#1d4ed8"/>
      </g>
      <g>
        <path d="M86.3,103.4c-1.3-1.3-2-2.9-2-4.7s.7-3.4,2-4.7,2.9-2,4.8-2,3.5.7,4.8,2,2,2.9,2,4.7-.7,3.4-2,4.7c-1.3,1.3-2.9,2-4.8,2s-3.5-.7-4.8-2Z" fill="#1d4ed8"/>
        <path d="M104.7,104.7v-45.2h14.7c5.9,0,10.5.8,13.6,2.4,5.2,2.6,7.9,6.8,7.9,12.7s-2.2,9.3-6.7,11.9c-3.5,2-8.3,3.1-14.5,3.1h-2.1v15.1h-12.9ZM117.6,79.8h2.3c2.8,0,4.8-.3,5.8-.8,1.5-.8,2.3-2.2,2.3-4.2s-.8-3.6-2.5-4.3c-1.1-.5-3.1-.8-6-.8h-1.9v10.1Z" fill="#1d4ed8"/>
        <path d="M145.9,104.7v-45.2h15.8c5.5,0,9.7.7,12.7,2.2,4.9,2.4,7.3,6.3,7.3,11.8s-2.8,9.9-8.3,12.2l12,19h-14.6l-10.1-17.2h-2v17.2h-12.9ZM158.8,78.7h3.2c2.4,0,4.1-.3,5.1-.9,1.2-.7,1.8-1.9,1.8-3.6s-.7-3-2.2-3.7c-1.1-.5-2.9-.7-5.5-.7h-2.4v9Z" fill="#1d4ed8"/>
        <path d="M193,98.6c-4.7-4.5-7-10-7-16.6s2.3-12.1,7-16.6c4.7-4.5,10.4-6.7,17.2-6.7s12.5,2.2,17.2,6.7c4.7,4.5,7,10,7,16.6s-2.3,12.1-7,16.6c-4.7,4.5-10.4,6.7-17.2,6.7s-12.5-2.2-17.2-6.7ZM202.1,73.7c-2.2,2.3-3.3,5-3.3,8.3s1.1,6.1,3.3,8.3c2.2,2.3,4.9,3.4,8,3.4s5.8-1.1,8-3.4c2.2-2.3,3.3-5,3.3-8.3s-1.1-6.1-3.3-8.3c-2.2-2.3-4.9-3.4-8-3.4s-5.8,1.1-8,3.4Z" fill="#1d4ed8"/>
      </g>
      <g>
        <polygon points="273.1 42.5 273.1 37 268.7 42.5 273.1 42.5" fill="#1d4ed8"/>
        <path d="M246.5,26c-1.8,0-3.3,1.5-3.3,3.3v23.5c0,1.8,1.5,3.3,3.3,3.3h35.1l9.8-30.1h-44.9ZM263.5,51.5h-15.9v-4.3c1.6-2.7,2.4-3.5,4.3-5,2.1-1.9,5.2-3.1,5.2-4.9s-1.1-1.9-2.5-1.9-2.7,1.3-3.6,2.2l-3.2-3.4c2.1-2.4,4.7-3.7,7.7-3.7s7,2.5,7,6.5-1.6,4.6-4.7,6.6c-1.4.9-3.7,2.8-4.4,4h5.2v-2.4h5v6.3ZM280.8,51.5h-9.6v-3.9h1.9v-1.9h-8.5v-4.2l8.5-10.6h6.1v11.6h1.6v3.2h-1.6v1.9h1.6v3.9Z" fill="#1d4ed8"/>
        <path d="M314.2,26h-18l-9.8,30.1h27.7c1.8,0,3.3-1.5,3.3-3.3v-23.5c0-1.8-1.5-3.3-3.3-3.3ZM313.1,34.8l-7.9,16.7h-6.4l7.9-16.7h-4.8v1.9h-4.7v-5.8h16v3.9Z" fill="#1d4ed8"/>
      </g>
    </g>
  </g>
</svg>