<?xml version="1.0" encoding="UTF-8"?>
<svg xmlns="http://www.w3.org/2000/svg" baseProfile="tiny" version="1.2" viewBox="0 0 512 512">
  <!-- Generator: Adobe Illustrator 28.6.0, SVG Export Plug-In . SVG Version: 1.2.0 Build 709)  -->
  <g>
    <g id="Layer_1">
      <path d="M385.6,335.6h-133l-21.8,48h-52l114.1-254.5h52.3l114.1,254.5h-52.3l-21.4-48ZM319,182.6l-47.3,108.3h94.5l-47.3-108.3Z" fill="#1d4ed8"/>
      <path d="M401.5,403.5h24.7c-8.4,9.2-17.6,17.6-27.5,25.1-18.2,14.2-38.7,25.5-60.5,33.3-21.8,7.9-44.9,12-68.1,12.7-35,1-70.2-6.5-102-21.6-17.4,18-45.9,21.2-66.8,6.1l-6.6-4.7,11.1-15.4-20.4-14.7c-3.1-2.3-3.8-6.7-1.6-9.8,2.3-3.2,6.7-3.8,9.8-1.6l20.4,14.7,7.1-9.8,8.4-11.6,5.9-8.2-20.4-14.7c-3.2-2.3-3.8-6.7-1.6-9.8,2.3-3.1,6.7-3.8,9.8-1.6l20.4,14.7,11-15.4,6,4.3.6.5c9.7,7,16.2,16.8,19.2,27.5,2.8,9.9,2.6,20.6-.7,30.5,27.8,13.5,58.8,20.6,89.9,20.3,21.1-.2,42.3-3.5,62.3-10.4,20-6.8,39-16.8,56-29.4,4.7-3.4,9.2-7.1,13.6-11Z" fill="#f40000"/>
      <path d="M475.3,316.5c-2.9,10.1-6.6,20-11,29.5l-8.8-19.5c1.9-4.7,3.6-9.6,5.1-14.5,12.8-40.8,12.2-85.7-1.5-126.5-13.7-40.8-40.9-76.9-76.2-101.9-2.2-1.6-6-3.3-10.9-5.2-70.6-27-150.3,2.4-187.9,68l-51.8,90.5h102.8l-23,23.3L35.8,439.1l94.9-147.3H13l52.6-111h0c4.8-13.8,11.1-27,18.7-39.4,13.4-22.2,30.9-42,51.5-57.9,17.6-13.9,37.6-24.8,58.7-32.5,16.5-5.9,33.8-9.9,51.2-11.7,4.9-.5,9.9-.9,14.9-1,22.6-.8,45.2,2.1,67,8.3,21.7,6.4,42.5,16,61.3,28.8,37.5,25.5,67,63,82.4,106.1,15.4,43,17,90.9,4.1,135.1Z" fill="#f40000"/>
    </g>
  </g>
</svg>