<?xml version="1.0" encoding="UTF-8"?>
<svg xmlns="http://www.w3.org/2000/svg" baseProfile="tiny" version="1.2" viewBox="0 0 470.1 77.8">
  <!-- Generator: Adobe Illustrator 28.6.0, SVG Export Plug-In . SVG Version: 1.2.0 Build 709)  -->
  <g>
    <g id="Layer_1">
      <path d="M462.6,75.8H7.5c-3.1,0-5.5-2.4-5.5-5.4V7.4c0-3.1,2.4-5.4,5.5-5.4h455.1c3.1,0,5.5,2.4,5.5,5.4v63c-.1,3-2.5,5.4-5.5,5.4Z" fill="#fff" isolation="isolate" stroke="#1b2d43" stroke-miterlimit="10" stroke-width="4"/>
      <path d="M28.6,29l-10.2-10.1,4-3.9c.6-.5,1.6-.5,2.2,0l8,7.9c.5.6.5,1.5,0,2.2l-1.8,1.7-1.7,1.6c-.2.2-.4.4-.5.6ZM37,45.5c-1.7-1.4-3.3-2.9-4.8-4.4-1.6-1.5-3.1-3.2-4.5-4.7-1.1-1.4-1.5-3.3-.7-5l-10.5-10.4c-2.4,2.5-2.1,8.6.5,14,1.3,2.3,2.5,4.4,4.2,6.5,1.6,1.9,3.2,3.9,5.1,5.6,1.8,1.7,3.8,3.5,5.7,5,2.1,1.6,4.2,2.9,6.5,4.1,5.5,2.6,11.8,2.9,14.2.5l-10.6-10.3c-1.8.7-3.7.3-5.1-.9ZM58.5,48.5l-7.9-7.9c-.6-.5-1.6-.5-2.2,0h0l-1.8,1.7-1.7,1.6c-.2.2-.4.3-.6.5l10.2,10.1,4-3.9c.8-.5.8-1.4,0-2.1h0Z" fill="#1d4ed8"/>
    </g>
  </g>
</svg>