<?xml version="1.0" encoding="UTF-8"?>
<svg xmlns="http://www.w3.org/2000/svg" baseProfile="tiny" version="1.2" viewBox="0 0 470.1 77.8">
  <!-- Generator: Adobe Illustrator 28.6.0, SVG Export Plug-In . SVG Version: 1.2.0 Build 709)  -->
  <g>
    <g id="Layer_1">
      <path d="M462.6,75.8H7.5c-3.1,0-5.5-2.4-5.5-5.4V7.4c0-3.1,2.4-5.4,5.5-5.4h455.1c3.1,0,5.5,2.4,5.5,5.4v63c-.1,3-2.5,5.4-5.5,5.4Z" fill="#fff" isolation="isolate" stroke="#1b2d43" stroke-miterlimit="10" stroke-width="4"/>
      <path d="M28.6,29l-10.2-10.1,4-3.9c.6-.5,1.6-.5,2.2,0l8,7.9c.5.6.5,1.5,0,2.2l-1.8,1.7-1.7,1.6c-.2.2-.4.4-.5.6ZM37,45.5c-1.7-1.4-3.3-2.9-4.8-4.4-1.6-1.5-3.1-3.2-4.5-4.7-1.1-1.4-1.5-3.3-.7-5l-10.5-10.4c-2.4,2.5-2.1,8.6.5,14,1.3,2.3,2.5,4.4,4.2,6.5,1.6,1.9,3.2,3.9,5.1,5.6,1.8,1.7,3.8,3.5,5.7,5,2.1,1.6,4.2,2.9,6.5,4.1,5.5,2.6,11.8,2.9,14.2.5l-10.6-10.3c-1.8.7-3.7.3-5.1-.9ZM58.5,48.5l-7.9-7.9c-.6-.5-1.6-.5-2.2,0h0l-1.8,1.7-1.7,1.6c-.2.2-.4.3-.6.5l10.2,10.1,4-3.9c.8-.5.8-1.4,0-2.1h0Z" fill="#1d4ed8"/>
      <g>
        <path d="M103.7,54.3c-4.3,0-7.6-1.5-9.7-4.5-1.9-2.6-2.8-6.6-2.8-12.2s.9-9.6,2.8-12.2c2.2-3,5.4-4.5,9.7-4.5s7.6,1.5,9.7,4.5c1.9,2.6,2.8,6.6,2.8,12.2s-.9,9.6-2.8,12.2c-2.2,3-5.4,4.5-9.7,4.5ZM103.7,46.3c1.1,0,2-.5,2.5-1.4.6-1,.9-3.4.9-7.3s-.3-6.3-.9-7.3c-.5-.9-1.3-1.4-2.5-1.4s-2,.5-2.5,1.4c-.6,1-.9,3.4-.9,7.3s.3,6.3.9,7.3c.5.9,1.3,1.4,2.5,1.4Z" fill="#1d4ed8"/>
        <path d="M131,21.3h10.7l-8.3,11.7h0c.7-.1,1.5-.2,2.3-.2,2.7,0,5,1,7,2.9,2,1.9,3,4.4,3,7.4s-1.2,5.9-3.7,8c-2.5,2.1-5.5,3.2-9.2,3.2s-6.8-1-9.2-3.1c-2.5-2.1-3.7-5-3.7-8.7s.3-3.7,1-5.4c.7-1.7,1.7-3.6,3.1-5.7l6.9-10.1ZM130.5,40.6c-.7.7-1,1.5-1,2.5s.3,1.9,1,2.6c.7.7,1.5,1.1,2.6,1.1s1.9-.3,2.6-1c.7-.7,1-1.5,1-2.6s-.3-1.9-1-2.6c-.7-.7-1.5-1.1-2.6-1.1s-1.8.3-2.5,1Z" fill="#1d4ed8"/>
        <path d="M157.8,47.4h0c0,0,16.4-26.1,16.4-26.1h8.2v19.6h4.3v6.6h-4.3v6.4h-9.3v-6.4h-15.3ZM171.2,38.3l-1.5,2.4h0c0,0,3.6,0,3.6,0v-2.4c0-.8,0-2,0-3.6h0c-.5.9-1.2,2.1-2.1,3.5Z" fill="#1d4ed8"/>
        <path d="M188.1,47.4h0c0,0,16.4-26.1,16.4-26.1h8.2v19.6h4.3v6.6h-4.3v6.4h-9.3v-6.4h-15.3ZM201.5,38.3l-1.5,2.4h0c0,0,3.6,0,3.6,0v-2.4c0-.8,0-2,0-3.6h0c-.5.9-1.2,2.1-2.1,3.5Z" fill="#1d4ed8"/>
        <path d="M242.2,21.3h10.7l-8.3,11.7h0c.7-.1,1.5-.2,2.3-.2,2.7,0,5,1,7,2.9,2,1.9,3,4.4,3,7.4s-1.2,5.9-3.7,8c-2.5,2.1-5.5,3.2-9.2,3.2s-6.8-1-9.2-3.1c-2.5-2.1-3.7-5-3.7-8.7s.3-3.7,1-5.4c.7-1.7,1.7-3.6,3.1-5.7l6.9-10.1ZM241.7,40.6c-.7.7-1,1.5-1,2.5s.3,1.9,1,2.6c.7.7,1.5,1.1,2.6,1.1s1.9-.3,2.6-1c.7-.7,1-1.5,1-2.6s-.3-1.9-1-2.6c-.7-.7-1.5-1.1-2.6-1.1s-1.8.3-2.5,1Z" fill="#1d4ed8"/>
        <path d="M258.3,47.4h0c0,0,16.4-26.1,16.4-26.1h8.2v19.6h4.3v6.6h-4.3v6.4h-9.3v-6.4h-15.3ZM271.8,38.3l-1.5,2.4h0c0,0,3.6,0,3.6,0v-2.4c0-.8,0-2,0-3.6h0c-.5.9-1.2,2.1-2.1,3.5Z" fill="#1d4ed8"/>
        <path d="M299.3,47.4h0c0,0,16.4-26.1,16.4-26.1h8.2v19.6h4.3v6.6h-4.3v6.4h-9.3v-6.4h-15.3ZM312.7,38.3l-1.5,2.4h0c0,0,3.6,0,3.6,0v-2.4c0-.8,0-2,0-3.6h0c-.5.9-1.2,2.1-2.1,3.5Z" fill="#1d4ed8"/>
        <path d="M354.6,51.5c-2.5,1.9-5.7,2.8-9.4,2.8s-6.9-.9-9.4-2.8c-2.5-1.9-3.8-4.3-3.8-7.2s.4-3.2,1.3-4.6c.9-1.4,2.2-2.4,3.8-3.1h0c-1.3-.6-2.3-1.5-3-2.6-.7-1.2-1.1-2.4-1.1-3.8,0-2.7,1.2-4.9,3.5-6.6,2.4-1.8,5.2-2.7,8.6-2.7s6.2.9,8.6,2.7c2.4,1.8,3.5,4,3.5,6.6s-.4,2.7-1.1,3.8c-.7,1.2-1.7,2-3,2.5h0c1.7.8,3,1.8,3.8,3.2.9,1.4,1.3,2.9,1.3,4.6,0,3-1.3,5.4-3.8,7.2ZM342.5,46c.7.7,1.6,1,2.7,1s2-.3,2.7-1c.7-.7,1.1-1.5,1.1-2.4s-.4-1.8-1.1-2.5c-.7-.7-1.6-1-2.7-1s-1.9.3-2.7,1c-.7.7-1.1,1.5-1.1,2.5s.4,1.8,1.1,2.4ZM343,33c.6.6,1.3.9,2.2.9s1.6-.3,2.2-.9c.6-.6.9-1.3.9-2.1s-.3-1.5-.9-2.1c-.6-.6-1.3-.9-2.2-.9s-1.6.3-2.2.9c-.6.6-.9,1.3-.9,2.1s.3,1.5.9,2.1Z" fill="#1d4ed8"/>
        <path d="M371.2,53.7l9.3-13.3c1.7-2.4,2.9-4.2,3.5-5.3s.9-2.2.9-3.1-.3-1.8-1-2.4c-.7-.6-1.6-.9-2.8-.9-2.5,0-5.1,1-7.7,3.1v-8.5c1-.7,2.4-1.3,4-1.9s3.4-.8,5.3-.8c3.5,0,6.3,1,8.4,2.9,2.1,1.9,3.2,4.4,3.2,7.3s-.4,3.2-1.1,4.9c-.7,1.6-1.8,3.6-3.4,5.9l-2.8,4.1h0c0,0,8.4,0,8.4,0v7.8h-24.4Z" fill="#1d4ed8"/>
        <path d="M397.6,47.4h0c0,0,16.4-26.1,16.4-26.1h8.2v19.6h4.3v6.6h-4.3v6.4h-9.3v-6.4h-15.3ZM411,38.3l-1.5,2.4h0c0,0,3.6,0,3.6,0v-2.4c0-.8,0-2,0-3.6h0c-.5.9-1.2,2.1-2.1,3.5Z" fill="#1d4ed8"/>
      </g>
    </g>
  </g>
</svg>