<?xml version="1.0" encoding="UTF-8"?>
<svg xmlns="http://www.w3.org/2000/svg" baseProfile="tiny" version="1.2" viewBox="0 0 393 230.3">
  <!-- Generator: Adobe Illustrator 28.6.0, SVG Export Plug-In . SVG Version: 1.2.0 Build 709)  -->
  <g>
    <g id="Layer_1">
      <path d="M139.4,90.7v15.6l-30.7,17.7-30.7,17.7-30.7-17.7-18.1-10.4c18.4,1.3,45.3-4.2,76.7-16.1l-31.7,14.9c27.6-6.3,46.7-14.2,65.1-21.7Z" fill="#f9f9f9" fill-rule="evenodd"/>
      <path d="M78.1,0l30.7,17.7,30.7,17.7v29.9c-7.8,4.1-16,8.2-24.4,12-7,3.8-12.5,5.5-18.4,7.8-33.1,13.2-65.5,20.8-80,12.2v-61.9l30.7-17.7L78.1,0Z" fill="#1d4ed8" fill-rule="evenodd"/>
      <path d="M140.7,75.4c10.2-4.9,14-9.8,15.6-23.7-1.7,0-3.4.1-5.2.2.6,11.4-2.1,14.9-10.7,20.2,0,1.1.2,2.3.3,3.4Z" fill="#1d4ed8" fill-rule="evenodd"/>
      <polygon points="140.8 79.8 166 67.3 163.8 64 141.5 76.1 140.8 79.8" fill="red" fill-rule="evenodd"/>
      <path d="M141.7,80.7c7.4.2,14.5,2.3,21.5,5.5l.9-3.2c-6.7-3.3-13.6-5-20.9-4.9l-1.5,2.6Z" fill="#ff8000" fill-rule="evenodd"/>
      <path d="M8.9,71.8c-20.7,60.5,74.1,28.4,135.7-5.3.8,5.4,2.2,11.6,3,17C49,132.7-26.6,132.3,8.9,71.8Z" fill="#58595b" fill-rule="evenodd"/>
      <path d="M150.5,54.1l-1.7-1.8-.5-11.6,11.7-.6-.3,12.6-2.7,2c-.2,3.4-.8,6.9-2.2,10.3l-6.5-1.4c1.2-3,1.9-6.2,2.1-9.4h0ZM149.2,52.1c.8-2.4,2.8-1.6,3.6,0-.2-3.6-.4-7.3-.6-10.9-.1,3.2.3,6.7.2,9.9-1.3-2-3.6-.1-3.2,1.1h0ZM153.3,43.5c-.2,0-.3.1-.3.3h0c0,.2.1.3.3.3h2c.2,0,.3-.1.3-.3h0c0-.2-.1-.3-.3-.3h-2ZM153.3,47.5c-.2,0-.3.1-.3.3h0c0,.2.1.3.3.3h2c.2,0,.3-.1.3-.3h0c0-.2-.1-.3-.3-.3h-2ZM159.5,52.4c0-1.8-1.8-2.7-2.9-1-.3-3.4-.2-6.9-.5-10.3,0,3.6,0,7.2.1,10.8,1.3-1,2.7-1,3.3.5Z" fill="#58595b" fill-rule="evenodd"/>
      <g>
        <path d="M24,66.9l11.6-30.4h8.7l11.4,30.4h-8.9l-8.5-25.8h3.1l-8.7,25.8h-8.7ZM31.5,61.7v-6.7h17v6.7h-17Z" fill="#fff"/>
        <path d="M56.4,66.9v-30.4h8.5v30.4h-8.5ZM63.3,66.9v-7.3h14.2v7.3h-14.2Z" fill="#fff"/>
        <path d="M78.7,66.9v-30.4h8.5v30.4h-8.5ZM85.6,66.9v-7.3h14.2v7.3h-14.2Z" fill="#fff"/>
        <path d="M115,67.5c-2.4,0-4.6-.4-6.6-1.2-2-.8-3.8-1.9-5.3-3.3-1.5-1.4-2.7-3.1-3.5-5-.8-1.9-1.2-4-1.2-6.3s.4-4.4,1.2-6.3c.8-1.9,2-3.6,3.4-5,1.5-1.4,3.2-2.5,5.2-3.3,2-.8,4.2-1.2,6.6-1.2s4.6.4,6.6,1.2c2,.8,3.8,1.9,5.2,3.3,1.5,1.4,2.6,3.1,3.4,5,.8,1.9,1.2,4,1.2,6.3s-.4,4.3-1.2,6.3-2,3.6-3.4,5c-1.5,1.4-3.2,2.5-5.2,3.3-2,.8-4.2,1.2-6.5,1.2ZM114.9,59.9c1.6,0,3-.3,4.1-1,1.2-.7,2.1-1.7,2.7-2.9.6-1.3.9-2.7.9-4.4s-.2-2.4-.5-3.4c-.4-1-.9-1.9-1.6-2.6s-1.5-1.3-2.5-1.7-2-.6-3.2-.6-3,.3-4.1,1c-1.2.7-2.1,1.6-2.7,2.9-.6,1.2-.9,2.7-.9,4.4s.2,2.4.5,3.5.9,1.9,1.6,2.6c.7.7,1.5,1.3,2.5,1.7,1,.4,2,.6,3.2.6Z" fill="#fff"/>
      </g>
      <g>
        <path d="M173.4,66.3v-27.6h18v6.6h-10.1v3.5h8.6v6.2h-8.6v4.6h10.6v6.6h-18.4ZM187.9,29.8l-4.6,6.2h-4.9l3.4-6.2h6.1Z" fill="#1d4ed8"/>
        <path d="M195.2,66.3v-29.1h7.5v29.1h-7.5Z" fill="#1d4ed8"/>
        <path d="M224.2,59.6v5.7c-2.1,1-4.5,1.4-7.3,1.4s-6.1-.9-8.1-2.6c-2-1.7-3.1-4.1-3.1-7s1-5.4,3-7.2c2-1.8,4.4-2.8,7.2-2.8s4.8.8,6.6,2.4c1.8,1.6,2.8,4,2.8,7.2s0,1.4-.1,1.9h-11.8c.7,1.8,2.2,2.7,4.5,2.7s4.1-.6,6.3-1.8ZM215.8,52.5c-1.4,0-2.2.8-2.6,2.3h5.2c-.3-1.5-1.2-2.3-2.6-2.3Z" fill="#1d4ed8"/>
        <path d="M227.3,57c0-2.9,1.1-5.3,3.3-7.1s4.9-2.7,8-2.7,3.8.4,5.3,1.1v6.5c-1.7-1-3.3-1.5-4.8-1.5s-2.3.3-3.1,1-1.2,1.6-1.2,2.6.4,2,1.2,2.6c.8.7,1.8,1,3.1,1,1.9,0,3.5-.5,5-1.6v6.5c-1.5.8-3.4,1.2-5.8,1.2s-6-.9-8-2.8c-2.1-1.8-3.1-4.2-3.1-7Z" fill="#1d4ed8"/>
        <path d="M250.8,64.8c-1.2-1.2-1.8-3.2-1.8-5.9v-5.4h-2.8v-5.9h2.8v-4.7l7.5-1.3v6h4.5v5.9h-4.5v4.8c0,1.5.6,2.3,1.9,2.3s1.6-.2,2.6-.6v5.8c-1.3.6-2.9.9-4.7.9s-4.2-.6-5.5-1.9Z" fill="#1d4ed8"/>
        <path d="M264.1,66.3v-18.8h7.4v2h0c1.4-1.6,3-2.4,5-2.4s.9,0,1.4.2v6.9c-.7-.2-1.4-.2-2.1-.2-1.7,0-3.1.5-4.2,1.6v10.7h-7.5Z" fill="#1d4ed8"/>
        <path d="M281.6,44.1c-.8-.8-1.2-1.7-1.2-2.8s.4-2,1.2-2.8c.8-.8,1.7-1.1,2.8-1.1s2,.4,2.8,1.1c.8.8,1.2,1.7,1.2,2.8s-.4,2-1.2,2.8c-.8.8-1.7,1.1-2.8,1.1s-2-.4-2.8-1.1ZM280.6,66.3v-18.8h7.5v18.8h-7.5Z" fill="#1d4ed8"/>
        <path d="M291.1,57c0-2.9,1.1-5.3,3.3-7.1,2.2-1.8,4.9-2.7,8-2.7s3.8.4,5.3,1.1v6.5c-1.7-1-3.3-1.5-4.8-1.5s-2.3.3-3.1,1c-.8.7-1.2,1.6-1.2,2.6s.4,2,1.2,2.6c.8.7,1.8,1,3.1,1,1.9,0,3.5-.5,5-1.6v6.5c-1.5.8-3.4,1.2-5.8,1.2s-6-.9-8-2.8c-2.1-1.8-3.1-4.2-3.1-7Z" fill="#1d4ed8"/>
        <path d="M312.5,44.1c-.8-.8-1.2-1.7-1.2-2.8s.4-2,1.2-2.8c.8-.8,1.7-1.1,2.8-1.1s2,.4,2.8,1.1c.8.8,1.2,1.7,1.2,2.8s-.4,2-1.2,2.8c-.8.8-1.7,1.1-2.8,1.1s-2-.4-2.8-1.1ZM311.5,66.3v-18.8h7.5v18.8h-7.5Z" fill="#1d4ed8"/>
        <path d="M340.5,59.6v5.7c-2.1,1-4.5,1.4-7.3,1.4s-6.1-.9-8.1-2.6c-2-1.7-3.1-4.1-3.1-7s1-5.4,3-7.2c2-1.8,4.4-2.8,7.2-2.8s4.8.8,6.6,2.4c1.8,1.6,2.8,4,2.8,7.2s0,1.4-.1,1.9h-11.8c.7,1.8,2.2,2.7,4.5,2.7s4.1-.6,6.3-1.8ZM332.2,52.5c-1.4,0-2.2.8-2.6,2.3h5.2c-.3-1.5-1.2-2.3-2.6-2.3Z" fill="#1d4ed8"/>
        <path d="M344.7,66.3v-18.8h7.4v1.4h0c1.7-1.2,3.5-1.9,5.5-1.9s3.6.6,4.8,1.8c1.2,1.2,1.8,3,1.8,5.6v11.8h-7.5v-10.6c0-.8-.2-1.4-.5-1.8-.4-.4-.8-.5-1.4-.5-.9,0-1.8.3-2.5,1v12h-7.5Z" fill="#1d4ed8"/>
      </g>
      <g>
        <path d="M178.4,133.7c-1.6-1.6-2.4-3.6-2.4-5.8s.8-4.2,2.4-5.8,3.6-2.4,5.9-2.4,4.3.8,5.9,2.4,2.4,3.6,2.4,5.8-.8,4.2-2.4,5.8-3.6,2.4-5.9,2.4-4.3-.8-5.9-2.4Z" fill="#1d4ed8"/>
        <path d="M201.2,135.3v-56h18.2c7.3,0,13,1,16.9,2.9,6.5,3.2,9.8,8.5,9.8,15.8s-2.8,11.5-8.4,14.8c-4.3,2.5-10.3,3.8-18,3.8h-2.6v18.7h-15.9ZM217.2,104.5h2.9c3.5,0,5.9-.3,7.2-1,1.9-1,2.9-2.7,2.9-5.2s-1-4.4-3.1-5.3c-1.4-.7-3.9-1-7.4-1h-2.4v12.5Z" fill="#1d4ed8"/>
        <path d="M252.2,135.3v-56h19.6c6.8,0,12,.9,15.7,2.8,6,2.9,9.1,7.8,9.1,14.6s-3.4,12.2-10.3,15.1l14.9,23.5h-18l-12.5-21.3h-2.5v21.3h-15.9ZM268.2,103.1h3.9c2.9,0,5-.4,6.3-1.2,1.5-.9,2.2-2.3,2.2-4.4s-.9-3.8-2.7-4.6c-1.3-.6-3.6-.9-6.8-.9h-2.9v11.1Z" fill="#1d4ed8"/>
        <path d="M310.5,127.8c-5.8-5.6-8.7-12.4-8.7-20.5s2.9-14.9,8.7-20.5c5.8-5.6,12.9-8.4,21.3-8.4s15.5,2.8,21.3,8.4c5.8,5.6,8.7,12.4,8.7,20.5s-2.9,14.9-8.7,20.5c-5.8,5.6-12.9,8.4-21.3,8.4s-15.5-2.8-21.3-8.4ZM321.9,97c-2.7,2.8-4.1,6.3-4.1,10.3s1.4,7.5,4.1,10.3c2.7,2.8,6,4.2,9.9,4.2s7.2-1.4,9.9-4.2c2.7-2.8,4.1-6.3,4.1-10.3s-1.4-7.5-4.1-10.3c-2.7-2.8-6-4.2-9.9-4.2s-7.2,1.4-9.9,4.2Z" fill="#1d4ed8"/>
      </g>
      <rect x=".5" y="167.7" width="393" height="63" fill="#1d4ed8"/>
      <g>
        <path d="M24,208.8v-19.1h5.5c4,0,7,.7,9,2.2,2.2,1.6,3.3,4.1,3.3,7.4s-.9,5.2-2.7,6.9c-2,1.8-5.1,2.6-9.4,2.6h-5.6ZM29.4,204.2h.2c2.8,0,4.7-.6,5.7-1.7.6-.8,1-1.9,1-3.3s-.5-3.1-1.6-3.9c-1-.7-2.6-1.1-5-1.1h-.2v9.9Z" fill="#fff"/>
        <path d="M44,208.8v-19.1h12.4v4.6h-7v2.4h5.9v4.3h-5.9v3.2h7.3v4.6h-12.8ZM54,183.5l-3.2,4.3h-3.4l2.3-4.3h4.2Z" fill="#fff"/>
        <path d="M59.2,208.8v-19.1h6.2c2.5,0,4.4.3,5.7,1,2.2,1.1,3.3,2.9,3.3,5.4s-.9,3.9-2.8,5c-1.5.9-3.5,1.3-6.1,1.3h-.9v6.4h-5.4ZM64.6,198.3h1c1.2,0,2-.1,2.5-.3.6-.3,1-.9,1-1.8s-.4-1.5-1.1-1.8c-.5-.2-1.3-.3-2.5-.3h-.8v4.3Z" fill="#fff"/>
        <path d="M73.8,208.8l7.7-19.1h5.4l7.7,19.1h-5.9l-1.3-3.9h-6.5l-1.4,3.9h-5.6ZM84.2,195.5h0c-.4,1.2-.7,2.4-1.2,3.6l-.7,1.8h3.7l-.6-1.8c-.3-1-.7-2.2-1.2-3.6Z" fill="#fff"/>
        <path d="M109.4,208.8l-5.1-6.9c-1-1.3-2-2.7-2.9-4.1h0c0,2.2,0,3.8,0,4.9v6.1h-5.2v-19.1h5.1l5.1,6.9c1,1.3,2,2.7,2.9,4.1h0c0-2.2,0-3.8,0-4.9v-6.1h5.2v19.1h-5.1Z" fill="#fff"/>
        <path d="M130.7,208.8l-5.1-6.9c-1-1.3-2-2.7-2.9-4.1h0c0,2.2,0,3.8,0,4.9v6.1h-5.2v-19.1h5.1l5.1,6.9c1,1.3,2,2.7,2.9,4.1h0c0-2.2,0-3.8,0-4.9v-6.1h5.2v19.1h-5.1Z" fill="#fff"/>
        <path d="M137.3,208.8l7.7-19.1h5.4l7.7,19.1h-5.9l-1.3-3.9h-6.5l-1.4,3.9h-5.6ZM147.7,195.5h0c-.4,1.2-.7,2.4-1.2,3.6l-.7,1.8h3.7l-.6-1.8c-.3-1-.7-2.2-1.2-3.6Z" fill="#fff"/>
        <path d="M157.9,199.3c0-2.8,1-5.2,3-7.1,2-1.9,4.6-2.8,7.7-2.8s4.1.4,5.9,1.3v5.2c-1.9-1.2-3.8-1.8-5.7-1.8s-3,.5-4,1.4c-1,1-1.5,2.2-1.5,3.7s.5,2.7,1.5,3.7c1,1,2.3,1.5,3.9,1.5s.8,0,1.2-.1v-2h-2.6v-4h7.9v9.4c-1.9.9-4.1,1.4-6.4,1.4s-5.8-.9-7.8-2.8c-2-1.8-3-4.2-3-7Z" fill="#fff"/>
        <path d="M178,208.8v-19.1h12.4v4.6h-7v2.4h5.9v4.3h-5.9v3.2h7.3v4.6h-12.8Z" fill="#fff"/>
        <path d="M199.4,208.8v-19.1h12.4v4.6h-7v2.4h5.9v4.3h-5.9v3.2h7.3v4.6h-12.8ZM209.4,183.5l-3.2,4.3h-3.4l2.3-4.3h4.2Z" fill="#fff"/>
        <path d="M214.5,208.8v-19.1h5.4v14.5h8v4.6h-13.4Z" fill="#fff"/>
        <path d="M229.8,208.8v-19.1h12.4v4.6h-7v2.4h5.9v4.3h-5.9v3.2h7.3v4.6h-12.8Z" fill="#fff"/>
        <path d="M244.3,199.2c0-2.8,1-5.2,3-7,2-1.9,4.6-2.8,7.7-2.8s3.7.4,5.3,1.1v5.3c-1.7-1.1-3.4-1.6-5.2-1.6s-2.9.5-3.9,1.4c-1,.9-1.5,2.1-1.5,3.6s.5,2.6,1.5,3.6,2.3,1.4,4,1.4,3.5-.6,5.3-1.7v5.4c-1.6.8-3.5,1.1-5.5,1.1-3.2,0-5.7-.9-7.7-2.8s-3-4.2-3-7Z" fill="#fff"/>
        <path d="M267.7,208.8v-14.5h-6.1v-4.6h17.6v4.6h-6.1v14.5h-5.4Z" fill="#fff"/>
        <path d="M280.8,208.8v-19.1h6.7c2.3,0,4.1.3,5.3.9,2.1,1,3.1,2.7,3.1,5s-1.2,4.2-3.5,5.1l5.1,8h-6.1l-4.2-7.2h-.8v7.2h-5.4ZM286.3,197.8h1.3c1,0,1.7-.1,2.1-.4.5-.3.8-.8.8-1.5s-.3-1.3-.9-1.6c-.5-.2-1.2-.3-2.3-.3h-1v3.8Z" fill="#fff"/>
        <path d="M298.4,208.8v-19.1h5.4v19.1h-5.4Z" fill="#fff"/>
        <path d="M306.2,199.2c0-2.8,1-5.1,3-7s4.4-2.8,7.2-2.8,5.3.9,7.2,2.8c2,1.9,3,4.2,3,7s-.4,3.4-1.3,4.9c-.9,1.5-2.1,2.7-3.5,3.5h0c1.6,1.1,3.3,2,5.1,2.8l-4.8,2.8c-2.1-1-4-2.4-5.7-4.1-2.8,0-5.2-1-7.1-2.9s-2.9-4.2-2.9-6.9ZM313,195.7c-.9,1-1.4,2.1-1.4,3.5s.5,2.6,1.4,3.5,2.1,1.4,3.4,1.4,2.5-.5,3.4-1.4,1.4-2.1,1.4-3.5-.5-2.6-1.4-3.5c-.9-1-2.1-1.4-3.4-1.4s-2.5.5-3.4,1.4Z" fill="#fff"/>
        <path d="M330.2,205.9c-1-1.4-1.5-3.5-1.5-6.2v-10h5.4v9.7c0,1.8.2,3,.7,3.7.6.8,1.5,1.3,2.8,1.3s2-.4,2.6-1.1c.6-.7.9-2,.9-3.8v-9.7h5.2v10c0,2.8-.5,4.9-1.6,6.3-.7.9-1.7,1.7-3,2.2-1.3.5-2.7.8-4.3.8s-3-.3-4.3-.8c-1.3-.5-2.3-1.3-3-2.3Z" fill="#fff"/>
        <path d="M349.2,208.8v-19.1h12.4v4.6h-7v2.4h5.9v4.3h-5.9v3.2h7.3v4.6h-12.8Z" fill="#fff"/>
      </g>
    </g>
  </g>
</svg>