<?xml version="1.0" encoding="UTF-8"?>
<svg xmlns="http://www.w3.org/2000/svg" baseProfile="tiny" version="1.2" viewBox="0 0 423.8 104.6">
  <!-- Generator: Adobe Illustrator 28.6.0, SVG Export Plug-In . SVG Version: 1.2.0 Build 709)  -->
  <g>
    <g id="Layer_1">
      <g>
        <path d="M103.9,55.7c7.5-3.6,10.3-7.2,11.5-17.5-1.3,0-2.5,0-3.8.1.4,8.4-1.6,11-7.9,14.9,0,.8.1,1.7.2,2.5Z" fill="#1d4ed8" fill-rule="evenodd"/>
        <polygon points="104 58.9 122.6 49.7 120.9 47.3 104.5 56.2 104 58.9" fill="red" fill-rule="evenodd"/>
        <path d="M104.6,59.5c5.5.1,10.7,1.7,15.9,4l.7-2.4c-4.9-2.4-10.1-3.7-15.4-3.6l-1.1,1.9Z" fill="#ff8000" fill-rule="evenodd"/>
        <path d="M111.1,40l-1.2-1.3-.4-8.6,8.6-.5-.2,9.3-2,1.5c-.1,2.5-.6,5.1-1.6,7.6l-4.8-1.1c.9-2.2,1.4-4.5,1.6-7h0ZM110.2,38.5c.6-1.8,2-1.2,2.6,0-.2-2.7-.3-5.4-.5-8.1,0,2.4.3,4.9.2,7.3-.9-1.5-2.7,0-2.3.8h0ZM113.2,32.1c-.1,0-.2.1-.2.2h0c0,.1.1.2.2.2h1.5c.1,0,.2-.1.2-.2h0c0-.1-.1-.2-.2-.2h-1.5ZM113.2,35.1c-.1,0-.2.1-.2.2h0c0,.1.1.2.2.2h1.5c.1,0,.2-.1.2-.2h0c0-.1-.1-.2-.2-.2h-1.5ZM117.8,38.7c0-1.4-1.3-2-2.1-.7-.2-2.5-.2-5.1-.4-7.6,0,2.7,0,5.3.1,8,.9-.7,2-.7,2.4.4Z" fill="#58595b" fill-rule="evenodd"/>
        <g>
          <path d="M102.9,66.9v11.5l-22.7,13.1-22.7,13.1-22.7-13.1-13.3-7.7c13.6,1,33.4-3.1,56.6-11.9l-23.4,11c20.4-4.6,34.4-10.5,48.1-16Z" fill="#bec4cc" fill-rule="evenodd"/>
          <path d="M57.6,0l22.7,13.1,22.7,13.1v22.1c-5.7,3-11.8,6-18,8.8-5.2,2.8-9.2,4-13.6,5.8-24.5,9.7-48.3,15.3-59,9V26.2l22.7-13.1L57.6,0Z" fill="#1d4ed8" fill-rule="evenodd"/>
          <path d="M6.6,53c-15.3,44.7,54.7,21,100.2-3.9.6,4,1.6,8.6,2.2,12.5C36.2,98-19.7,97.7,6.6,53Z" fill="#58595b" fill-rule="evenodd"/>
          <g>
            <path d="M17.7,49.4l8.5-22.5h6.4l8.5,22.5h-6.6l-6.3-19.1h2.3l-6.4,19.1h-6.4ZM23.2,45.6v-4.9h12.6v4.9h-12.6Z" fill="#fff"/>
            <path d="M41.6,49.4v-22.5h6.3v22.5h-6.3ZM46.7,49.4v-5.4h10.5v5.4h-10.5Z" fill="#fff"/>
            <path d="M58.1,49.4v-22.5h6.3v22.5h-6.3ZM63.2,49.4v-5.4h10.5v5.4h-10.5Z" fill="#fff"/>
            <path d="M84.9,49.8c-1.8,0-3.4-.3-4.9-.9-1.5-.6-2.8-1.4-3.9-2.5-1.1-1.1-2-2.3-2.6-3.7-.6-1.4-.9-3-.9-4.6s.3-3.2.9-4.6c.6-1.4,1.4-2.6,2.5-3.7,1.1-1.1,2.4-1.9,3.9-2.4,1.5-.6,3.1-.9,4.9-.9s3.4.3,4.9.9c1.5.6,2.8,1.4,3.9,2.4,1.1,1.1,1.9,2.3,2.5,3.7.6,1.4.9,3,.9,4.7s-.3,3.2-.9,4.6-1.4,2.7-2.5,3.7c-1.1,1.1-2.4,1.9-3.8,2.5-1.5.6-3.1.9-4.8.9ZM84.8,44.3c1.2,0,2.2-.3,3.1-.8.9-.5,1.5-1.2,2-2.1.5-.9.7-2,.7-3.2s-.1-1.8-.4-2.5c-.3-.7-.6-1.4-1.2-1.9s-1.1-.9-1.8-1.2-1.5-.4-2.4-.4-2.2.2-3.1.7c-.9.5-1.5,1.2-2,2.1-.5.9-.7,2-.7,3.2s.1,1.8.4,2.6.6,1.4,1.2,1.9c.5.5,1.1.9,1.8,1.2.7.3,1.5.4,2.4.4Z" fill="#fff"/>
          </g>
        </g>
      </g>
      <g>
        <path d="M132.4,38.9v-18.7h12.2v4.5h-6.9v2.4h5.8v4.2h-5.8v3.1h7.2v4.5h-12.5ZM142.3,14.1l-3.1,4.2h-3.3l2.3-4.2h4.1Z" fill="#1d4ed8"/>
        <path d="M147.2,38.9v-19.7h5.1v19.7h-5.1Z" fill="#1d4ed8"/>
        <path d="M166.9,34.3v3.9c-1.4.7-3.1,1-5,1s-4.1-.6-5.5-1.8c-1.4-1.2-2.1-2.8-2.1-4.8s.7-3.6,2-4.9c1.4-1.2,3-1.9,4.9-1.9s3.2.6,4.5,1.7c1.2,1.1,1.9,2.7,1.9,4.9s0,.9,0,1.3h-8c.4,1.2,1.5,1.8,3.1,1.8s2.8-.4,4.3-1.2ZM161.2,29.5c-.9,0-1.5.5-1.8,1.6h3.5c-.2-1-.8-1.6-1.8-1.6Z" fill="#1d4ed8"/>
        <path d="M169,32.5c0-2,.8-3.6,2.3-4.8s3.3-1.9,5.4-1.9,2.6.2,3.6.7v4.4c-1.2-.7-2.2-1-3.2-1s-1.6.2-2.1.7-.8,1.1-.8,1.8.3,1.3.8,1.8c.5.4,1.3.7,2.1.7,1.3,0,2.4-.4,3.4-1.1v4.4c-1,.6-2.3.8-3.9.8s-4-.6-5.5-1.9c-1.4-1.2-2.1-2.8-2.1-4.7Z" fill="#1d4ed8"/>
        <path d="M184.9,37.8c-.8-.8-1.2-2.2-1.2-4v-3.6h-1.9v-4h1.9v-3.2l5.1-.9v4.1h3.1v4h-3.1v3.3c0,1.1.4,1.6,1.3,1.6s1.1-.1,1.8-.4v3.9c-.9.4-2,.6-3.2.6s-2.9-.4-3.7-1.3Z" fill="#1d4ed8"/>
        <path d="M194,38.9v-12.7h5v1.4h0c.9-1.1,2.1-1.6,3.4-1.6s.6,0,.9.1v4.7c-.5-.1-.9-.2-1.4-.2-1.2,0-2.1.4-2.9,1.1v7.2h-5.1Z" fill="#1d4ed8"/>
        <path d="M205.8,23.8c-.5-.5-.8-1.1-.8-1.9s.3-1.4.8-1.9c.5-.5,1.2-.8,1.9-.8s1.4.3,1.9.8c.5.5.8,1.1.8,1.9s-.3,1.4-.8,1.9c-.5.5-1.2.8-1.9.8s-1.4-.3-1.9-.8ZM205.2,38.9v-12.7h5.1v12.7h-5.1Z" fill="#1d4ed8"/>
        <path d="M212.3,32.5c0-2,.8-3.6,2.3-4.8,1.5-1.2,3.3-1.9,5.4-1.9s2.6.2,3.6.7v4.4c-1.2-.7-2.2-1-3.2-1s-1.6.2-2.1.7c-.5.5-.8,1.1-.8,1.8s.3,1.3.8,1.8c.5.4,1.3.7,2.1.7,1.3,0,2.4-.4,3.4-1.1v4.4c-1,.6-2.3.8-3.9.8s-4-.6-5.5-1.9c-1.4-1.2-2.1-2.8-2.1-4.7Z" fill="#1d4ed8"/>
        <path d="M226.8,23.8c-.5-.5-.8-1.1-.8-1.9s.3-1.4.8-1.9c.5-.5,1.2-.8,1.9-.8s1.4.3,1.9.8c.5.5.8,1.1.8,1.9s-.3,1.4-.8,1.9c-.5.5-1.2.8-1.9.8s-1.4-.3-1.9-.8ZM226.1,38.9v-12.7h5.1v12.7h-5.1Z" fill="#1d4ed8"/>
        <path d="M245.8,34.3v3.9c-1.4.7-3.1,1-5,1s-4.1-.6-5.5-1.8c-1.4-1.2-2.1-2.8-2.1-4.8s.7-3.6,2-4.9c1.4-1.2,3-1.9,4.9-1.9s3.2.6,4.5,1.7c1.2,1.1,1.9,2.7,1.9,4.9s0,.9,0,1.3h-8c.4,1.2,1.5,1.8,3.1,1.8s2.8-.4,4.3-1.2ZM240.1,29.5c-.9,0-1.5.5-1.8,1.6h3.5c-.2-1-.8-1.6-1.8-1.6Z" fill="#1d4ed8"/>
        <path d="M248.6,38.9v-12.7h5v1h0c1.2-.8,2.4-1.3,3.7-1.3s2.4.4,3.3,1.2c.8.8,1.2,2.1,1.2,3.8v8h-5.1v-7.2c0-.6-.1-1-.4-1.2-.2-.2-.6-.4-1-.4-.6,0-1.2.2-1.7.7v8.1h-5.1Z" fill="#1d4ed8"/>
      </g>
      <g>
        <path d="M114.1,88.4c-1.3-1.3-2-2.9-2-4.7s.7-3.4,2-4.7,2.9-2,4.8-2,3.5.7,4.8,2,2,2.9,2,4.7-.7,3.4-2,4.7-2.9,2-4.8,2-3.5-.7-4.8-2Z" fill="#1d4ed8"/>
        <path d="M132.6,89.7v-45.2h14.7c5.9,0,10.5.8,13.6,2.4,5.2,2.6,7.9,6.8,7.9,12.7s-2.2,9.3-6.7,11.9c-3.5,2-8.3,3.1-14.5,3.1h-2.1v15.1h-12.9ZM145.5,64.8h2.3c2.8,0,4.8-.3,5.8-.8,1.5-.8,2.3-2.2,2.3-4.2s-.8-3.6-2.5-4.3c-1.1-.5-3.1-.8-6-.8h-1.9v10.1Z" fill="#1d4ed8"/>
        <path d="M173.8,89.7v-45.2h15.8c5.5,0,9.7.7,12.7,2.2,4.9,2.4,7.3,6.3,7.3,11.8s-2.8,9.9-8.3,12.2l12,19h-14.6l-10.1-17.2h-2v17.2h-12.9ZM186.6,63.7h3.2c2.4,0,4.1-.3,5.1-.9,1.2-.7,1.8-1.9,1.8-3.6s-.7-3-2.2-3.7c-1.1-.5-2.9-.7-5.5-.7h-2.4v9Z" fill="#1d4ed8"/>
        <path d="M220.8,83.6c-4.7-4.5-7-10-7-16.6s2.3-12.1,7-16.6c4.7-4.5,10.4-6.7,17.2-6.7s12.5,2.2,17.2,6.7c4.7,4.5,7,10,7,16.6s-2.3,12.1-7,16.6c-4.7,4.5-10.4,6.7-17.2,6.7s-12.5-2.2-17.2-6.7ZM230,58.7c-2.2,2.3-3.3,5-3.3,8.3s1.1,6.1,3.3,8.3c2.2,2.3,4.9,3.4,8,3.4s5.8-1.1,8-3.4c2.2-2.3,3.3-5,3.3-8.3s-1.1-6.1-3.3-8.3c-2.2-2.3-4.9-3.4-8-3.4s-5.8,1.1-8,3.4Z" fill="#1d4ed8"/>
      </g>
      <g>
        <g>
          <path d="M289.8,45.5c-7.2,9.3-17.2,5.7-17.2,5.7v21.4c0,13.4,16.6,19.2,17.2,19.2s17.2-5.8,17.2-19.2v-21.4s-10,3.6-17.2-5.7Z" fill="#1d4ed8"/>
          <polygon points="289 76.6 281.6 69.2 284 66.8 289 71.7 297.6 63.1 300 65.5 289 76.6" fill="#fff"/>
        </g>
        <path d="M418.4,51.9h-.2l-108.4,3.5v3.1l108.5-3.5h0c1.2,0,2.3,1,2.3,2.3v15.6c0,1.2-1,2.2-2.2,2.3l-109.7,3.5c-.4,1.1-.8,2.1-1.4,3.2l111.2-3.5c2.9-.1,5.2-2.5,5.2-5.4v-15.6c0-3-2.4-5.4-5.4-5.4h0Z" fill="#1d4ed8"/>
        <path d="M329.7,63.6c.9.7,1.4,1.9,1.4,3.3h-3.2c0-.5-.2-1-.5-1.3s-.8-.5-1.4-.5-1.2.3-1.5.7c-.3.5-.5,1-.5,1.8v1c0,.8.2,1.4.5,1.8s.8.6,1.5.6c.7,0,1.1-.2,1.5-.6.3-.3.5-.8.5-1.4h3.1c0,1.3-.5,2.4-1.3,3.2s-2.1,1.2-3.7,1.3c-1.8,0-3.2-.3-4.1-1.2s-1.4-2.2-1.4-4,.5-3.2,1.4-4.1c.9-1,2.3-1.5,4.1-1.5,1.6,0,2.8.3,3.7,1.1h0Z" fill="#1d4ed8"/>
        <path d="M332.8,62.5l9.1-.3v2.5l-5.7.2v1.5l4.9-.2v2.4l-4.9.2v1.6l5.8-.2v2.5l-9.2.3s0-10.5,0-10.5Z" fill="#1d4ed8"/>
        <path d="M353.4,66.8c-.3.5-.8.9-1.5,1.2l2.3,4.3h-3.8c0,.1-1.9-3.7-1.9-3.7h-1.2v3.9h-3.4c0,.1,0-10.4,0-10.4l6.4-.2c.7,0,1.4.1,1.9.4s.9.7,1.2,1.1c.3.5.4,1,.4,1.6s-.2,1.2-.5,1.7h0ZM350.2,64.6c-.2-.2-.4-.3-.7-.3h-2.2v2h2.2c.3,0,.5-.2.7-.4.2-.2.3-.4.3-.7s0-.5-.3-.7h0Z" fill="#1d4ed8"/>
        <path d="M361.7,64.3v7.8h-3.4c0,.1,0-7.7,0-7.7h-3.5c0,.1,0-2.6,0-2.6l10.3-.3v2.7h-3.4c0,.1,0,.1,0,.1Z" fill="#1d4ed8"/>
        <path d="M366.9,72v-10.5h3.4c0-.1,0,10.4,0,10.4h-3.4Z" fill="#1d4ed8"/>
        <path d="M372.7,61.3l8.5-.3v2.5l-5.1.2v1.8h4.4c0-.1,0,2.3,0,2.3h-4.4v3.9h-3.4c0,.1,0-10.4,0-10.4h0Z" fill="#1d4ed8"/>
        <path d="M383,71.4v-10.5h3.4c0-.1,0,10.4,0,10.4h-3.4Z" fill="#1d4ed8"/>
        <path d="M388.8,60.7l9.1-.3v2.5l-5.7.2v1.5l4.9-.2v2.4l-4.9.2v1.6l5.8-.2v2.5l-9.2.3s0-10.5,0-10.5Z" fill="#1d4ed8"/>
        <path d="M391.8,59.3l1.2-1.5,3.9-.4-2.1,1.6-3,.3h0Z" fill="#1d4ed8"/>
      </g>
      <g>
        <polygon points="300.1 30.6 300.1 25.5 296 30.6 300.1 30.6" fill="#1d4ed8"/>
        <path d="M275.1,15.1c-1.7,0-3.1,1.4-3.1,3.1v22.1c0,1.7,1.4,3.1,3.1,3.1h33.1l9.2-28.3h-42.3ZM291.1,39.1h-15v-4c1.5-2.5,2.3-3.3,4.1-4.7,2-1.8,4.9-2.9,4.9-4.6s-1.1-1.8-2.3-1.8-2.6,1.2-3.4,2.1l-3-3.2c1.9-2.3,4.4-3.4,7.2-3.4s6.6,2.3,6.6,6.1-1.5,4.3-4.4,6.2c-1.3.9-3.5,2.6-4.2,3.7h4.9v-2.2h4.7v5.9ZM307.3,39.1h-9v-3.7h1.8v-1.8h-8v-4l8-10h5.8v10.9h1.5v3h-1.5v1.8h1.5v3.7Z" fill="#1d4ed8"/>
        <path d="M338.7,15.1h-16.9l-9.2,28.3h26.1c1.7,0,3.1-1.4,3.1-3.1v-22.1c0-1.7-1.4-3.1-3.1-3.1ZM337.7,23.4l-7.5,15.7h-6l7.4-15.7h-4.6v1.8h-4.4v-5.5h15v3.7Z" fill="#1d4ed8"/>
      </g>
    </g>
  </g>
</svg>